<svg width="147" height="115" viewBox="0 0 147 115" fill="none" xmlns="http://www.w3.org/2000/svg">
<rect x="1" width="122" height="111" rx="12" fill="white"/>
<rect width="34.987" height="10.3286" rx="5.16432" transform="matrix(0.9637 -0.259374 0.299712 0.956436 44.5078 98.2585)" fill="#FFCADF"/>
<path d="M52.7887 103.371L51.8056 100.234L51.932 100.304L50.6502 100.649L50.5543 100.342L53.2768 99.6097L53.3727 99.9158L52.0958 100.259L52.1574 100.139L53.1404 103.276L52.7887 103.371ZM56.069 102.514C55.8505 102.573 55.6375 102.577 55.4299 102.525C55.2212 102.471 55.0344 102.364 54.8695 102.204C54.7067 102.041 54.5824 101.822 54.4965 101.548C54.4106 101.273 54.3895 101.028 54.4334 100.813C54.4762 100.594 54.5705 100.411 54.7162 100.265C54.8619 100.118 55.0456 100.015 55.2673 99.9555C55.5082 99.8907 55.7404 99.887 55.9639 99.9443C56.1896 99.9977 56.3875 100.107 56.5577 100.272C56.7268 100.434 56.8509 100.641 56.9298 100.893C57.0097 101.148 57.0251 101.386 56.9758 101.606C56.9265 101.827 56.8225 102.017 56.6637 102.178C56.5081 102.337 56.3099 102.449 56.069 102.514ZM55.0464 103.769L53.9689 100.331L54.2966 100.243L54.5334 100.998L54.657 101.509L54.864 102.003L55.3885 103.677L55.0464 103.769ZM55.9505 102.219C56.1304 102.171 56.2785 102.088 56.3949 101.97C56.5102 101.849 56.5867 101.704 56.6243 101.535C56.6608 101.363 56.6486 101.179 56.5877 100.985C56.5268 100.79 56.4315 100.631 56.3021 100.507C56.1726 100.383 56.0242 100.298 55.8569 100.253C55.6896 100.208 55.516 100.21 55.3361 100.259C55.1562 100.307 55.0069 100.392 54.8884 100.514C54.773 100.635 54.6965 100.78 54.659 100.949C54.6246 101.117 54.6379 101.299 54.6988 101.493C54.7598 101.688 54.8539 101.849 54.9812 101.977C55.1106 102.101 55.259 102.186 55.4263 102.231C55.5959 102.271 55.7706 102.268 55.9505 102.219ZM58.0108 101.965L57.2241 99.4548L57.5662 99.3627L58.1911 101.357L59.2575 98.9075L59.561 98.8258L60.3478 101.336L60.0057 101.429L59.3793 99.4296L58.3192 101.882L58.0108 101.965ZM61.28 101.086L60.4933 98.5749L62.2858 98.0925L62.3787 98.389L60.8416 98.8027L60.9013 98.6932L61.6221 100.993L61.28 101.086ZM63.5188 100.483L62.732 97.9724L64.5245 97.4899L64.6174 97.7864L63.0803 98.2001L63.1401 98.0907L63.8609 100.391L63.5188 100.483ZM66.7315 99.6442C66.4681 99.7151 66.2198 99.7232 65.9867 99.6684C65.7525 99.6104 65.5493 99.5009 65.3769 99.3399C65.2035 99.1757 65.0779 98.9692 65 98.7206C64.922 98.4719 64.9061 98.2376 64.9522 98.0178C65.0015 97.7971 65.1023 97.6075 65.2546 97.449C65.4092 97.2864 65.6037 97.1735 65.8382 97.1104C66.0759 97.0464 66.3033 97.044 66.5204 97.1031C66.7397 97.1582 66.9328 97.2687 67.0997 97.4346C67.2657 97.5974 67.3881 97.8047 67.467 98.0566C67.472 98.0725 67.4759 98.0905 67.4787 98.1105C67.4837 98.1264 67.4892 98.1439 67.4952 98.1631L65.2931 98.7557L65.2137 98.5023L67.2327 97.9589L67.1292 98.0956C67.0723 97.9139 66.9817 97.7637 66.8574 97.6451C66.7353 97.5223 66.5944 97.4393 66.4345 97.3959C66.2746 97.3525 66.1063 97.3546 65.9296 97.4021C65.7562 97.4488 65.6128 97.5306 65.4997 97.6475C65.3865 97.7644 65.3139 97.9049 65.2818 98.0691C65.2496 98.2333 65.2625 98.4079 65.3205 98.5928L65.3369 98.6454C65.3969 98.8367 65.4916 98.9944 65.6211 99.1186C65.7528 99.2387 65.9071 99.3199 66.084 99.3622C66.2632 99.4004 66.4508 99.3931 66.6467 99.3404C66.8009 99.2989 66.9354 99.2333 67.0501 99.1437C67.168 99.0531 67.2577 98.9391 67.3191 98.8016L67.5808 98.9697C67.5103 99.1339 67.4009 99.2739 67.2527 99.3899C67.1076 99.505 66.9339 99.5898 66.7315 99.6442ZM69.8836 98.7959C69.6651 98.8547 69.4521 98.8584 69.2445 98.8072C69.0358 98.7527 68.849 98.6457 68.6841 98.4861C68.5213 98.3225 68.397 98.1036 68.3111 97.8294C68.2252 97.5552 68.2041 97.3102 68.248 97.0945C68.2908 96.8755 68.3851 96.6929 68.5308 96.5465C68.6765 96.4001 68.8602 96.2971 69.0819 96.2374C69.3228 96.1726 69.555 96.1688 69.7785 96.2262C70.0042 96.2796 70.2021 96.3888 70.3723 96.5539C70.5414 96.7157 70.6655 96.9226 70.7444 97.1745C70.8243 97.4295 70.8397 97.6674 70.7904 97.8881C70.7411 98.1088 70.6371 98.2992 70.4783 98.4595C70.3227 98.6189 70.1245 98.731 69.8836 98.7959ZM68.861 100.051L67.7835 96.6128L68.1112 96.5246L68.348 97.2802L68.4716 97.7914L68.6786 98.2853L69.2031 99.9591L68.861 100.051ZM69.7651 98.5011C69.945 98.4527 70.0931 98.3696 70.2095 98.2518C70.3248 98.1309 70.4013 97.9859 70.4389 97.8168C70.4754 97.6444 70.4632 97.461 70.4023 97.2666C70.3414 97.0721 70.2461 96.9128 70.1167 96.7886C69.9872 96.6644 69.8388 96.5799 69.6715 96.535C69.5042 96.4902 69.3306 96.492 69.1507 96.5404C68.9708 96.5888 68.8215 96.6739 68.703 96.7957C68.5876 96.9167 68.5111 97.0617 68.4736 97.2308C68.4392 97.3991 68.4525 97.5805 68.5134 97.7749C68.5744 97.9694 68.6685 98.1308 68.7958 98.259C68.9252 98.3832 69.0736 98.4677 69.2409 98.5125C69.4105 98.5533 69.5852 98.5495 69.7651 98.5011ZM74.2925 97.5833L73.5057 95.0727L73.8478 94.9806L74.6346 97.4913L74.2925 97.5833ZM72.3808 96.3348C72.6998 96.2524 72.9643 96.2572 73.1743 96.3494C73.3843 96.4415 73.5298 96.6167 73.6107 96.8749C73.6946 97.1427 73.6691 97.3726 73.5342 97.5644C73.3992 97.7563 73.1642 97.8956 72.8291 97.9824L71.8254 98.2473L71.0387 95.7367L71.3808 95.6446L71.655 96.5197L72.3808 96.3348ZM72.7241 97.7306C72.9628 97.6698 73.1266 97.5756 73.2155 97.448C73.3066 97.3163 73.3227 97.1564 73.2638 96.9683C73.2048 96.7802 73.1024 96.6591 72.9566 96.605C72.8098 96.5477 72.6154 96.5499 72.3735 96.6116L71.7344 96.7732L72.0851 97.8922L72.7241 97.7306Z" fill="black"/>
<rect width="50.0502" height="11.3466" rx="5.67329" transform="matrix(0.990712 -0.147511 0.170489 0.983455 70.6592 66.9116)" fill="#BBFAFF"/>
<path d="M77.6029 72.9483C77.342 72.9872 77.0935 72.9804 76.8575 72.9282C76.6209 72.8726 76.4081 72.7782 76.219 72.6449C76.0299 72.5117 75.8706 72.3454 75.7412 72.1461C75.6151 71.9463 75.5302 71.7201 75.4864 71.4677C75.4427 71.2153 75.4469 70.9759 75.4991 70.7496C75.5546 70.5227 75.6497 70.3186 75.7842 70.1371C75.9221 69.9552 76.0942 69.8051 76.3007 69.6869C76.5066 69.5655 76.74 69.4853 77.0009 69.4465C77.2519 69.4091 77.4954 69.4166 77.7314 69.4689C77.9669 69.5179 78.1751 69.6147 78.356 69.7592L78.1632 70.025C77.9962 69.9019 77.8214 69.822 77.6389 69.7853C77.4558 69.7453 77.2652 69.74 77.0671 69.7696C76.859 69.8005 76.6721 69.8654 76.5063 69.964C76.3399 70.0594 76.202 70.1825 76.0926 70.3333C75.9827 70.4808 75.9048 70.6471 75.859 70.8322C75.8159 71.0134 75.8122 71.2074 75.848 71.4139C75.8838 71.6204 75.9531 71.8051 76.0559 71.9681C76.1614 72.1272 76.2916 72.2625 76.4464 72.374C76.6006 72.4822 76.7732 72.559 76.964 72.6046C77.1543 72.6469 77.3534 72.6525 77.5615 72.6216C77.7596 72.5921 77.9389 72.5318 78.0992 72.4406C78.2596 72.3495 78.3983 72.2212 78.5153 72.0558L78.7882 72.2523C78.6652 72.4421 78.5005 72.5961 78.294 72.7143C78.0876 72.8324 77.8572 72.9105 77.6029 72.9483ZM80.4522 72.519C80.2012 72.5564 79.9654 72.5344 79.7446 72.4529C79.5266 72.3677 79.3427 72.2353 79.193 72.0558C79.0428 71.8731 78.9455 71.6538 78.9012 71.3981C78.8563 71.1392 78.8746 70.9027 78.9561 70.6888C79.0375 70.4749 79.1677 70.2975 79.3465 70.1565C79.5253 70.0156 79.7419 69.9261 79.9962 69.8883C80.2538 69.8499 80.4913 69.8717 80.7087 69.9537C80.9295 70.0352 81.1131 70.1659 81.2595 70.3458C81.4091 70.5253 81.5064 70.7446 81.5513 71.0035C81.5957 71.2592 81.5774 71.4957 81.4964 71.7128C81.4183 71.9263 81.2884 72.1053 81.1068 72.2501C80.9247 72.3915 80.7065 72.4812 80.4522 72.519ZM80.3985 72.2092C80.5868 72.1812 80.7464 72.1154 80.8775 72.0118C81.0081 71.9049 81.1015 71.77 81.1579 71.6069C81.2171 71.44 81.2293 71.2566 81.1947 71.0566C81.1594 70.8534 81.0858 70.6828 80.9738 70.5447C80.8651 70.4062 80.731 70.3068 80.5715 70.2465C80.4114 70.1829 80.2389 70.1649 80.054 70.1924C79.869 70.22 79.7113 70.2872 79.5808 70.394C79.4497 70.4976 79.3543 70.6312 79.2946 70.7948C79.2348 70.9584 79.2226 71.1418 79.2578 71.345C79.2925 71.545 79.3661 71.7156 79.4787 71.8569C79.5907 71.9949 79.7267 72.0957 79.8868 72.1593C80.0463 72.2196 80.2169 72.2363 80.3985 72.2092ZM82.4776 72.1922L82.0301 69.6107L83.1793 69.4396C83.4733 69.3958 83.7141 69.4171 83.9018 69.5035C84.0929 69.5894 84.2071 69.7405 84.2447 69.9569C84.281 70.1667 84.2282 70.341 84.0863 70.4798C83.9438 70.6154 83.7405 70.7028 83.4763 70.7421L83.5277 70.6285C83.8382 70.5823 84.076 70.6058 84.2412 70.6989C84.4064 70.792 84.5077 70.9467 84.5452 71.1631C84.5839 71.386 84.5314 71.572 84.3879 71.7212C84.2471 71.8666 84.005 71.9648 83.6615 72.016L82.4776 72.1922ZM82.7717 71.866L83.599 71.7428C83.8202 71.7099 83.981 71.6506 84.0814 71.565C84.1844 71.4757 84.2223 71.3524 84.1951 71.195C84.1678 71.0377 84.0967 70.9306 83.9818 70.8737C83.867 70.8168 83.6989 70.8048 83.4776 70.8378L82.6157 70.9661L82.7717 71.866ZM82.5705 70.7055L83.3532 70.589C83.5546 70.559 83.7017 70.4984 83.7943 70.4073C83.8902 70.3156 83.9256 70.1977 83.9006 70.0535C83.8756 69.9092 83.8024 69.8092 83.6809 69.7533C83.5627 69.6969 83.4029 69.6837 83.2015 69.7137L82.4188 69.8302L82.5705 70.7055ZM85.4419 71.7509L84.9943 69.1693L85.351 69.1162L86.8735 70.9223L86.7248 70.9445L87.5801 68.7843L87.907 68.7356L88.3545 71.3172L88.0326 71.3651L87.6541 69.1819L87.7236 69.2018L86.9229 71.2075L86.7644 71.2311L85.3127 69.5406L85.3845 69.5148L85.7638 71.7029L85.4419 71.7509ZM90.4246 71.0342C90.1538 71.0745 89.9064 71.0542 89.6823 70.9732C89.4577 70.889 89.2705 70.7571 89.1209 70.5776C88.9706 70.3949 88.8733 70.1756 88.829 69.9199C88.7847 69.6642 88.7999 69.4299 88.8748 69.217C88.953 69.0036 89.0782 68.8269 89.2504 68.6869C89.4254 68.5432 89.6334 68.4534 89.8745 68.4175C90.1188 68.3811 90.3448 68.4046 90.5524 68.488C90.7626 68.5677 90.9396 68.6994 91.0833 68.8831C91.2263 69.0636 91.3203 69.2833 91.3652 69.5423C91.3681 69.5587 91.3695 69.577 91.3696 69.5971C91.3725 69.6135 91.3756 69.6315 91.379 69.6512L89.1152 69.9883L89.0701 69.7277L91.1456 69.4186L91.0248 69.5425C90.9924 69.3557 90.9224 69.1963 90.8149 69.0643C90.71 68.9286 90.5812 68.8301 90.4283 68.7688C90.2754 68.7075 90.1081 68.6904 89.9265 68.7174C89.7481 68.744 89.5951 68.8088 89.4673 68.9119C89.3395 69.015 89.2487 69.1462 89.1951 69.3055C89.1414 69.4648 89.131 69.6396 89.164 69.8297L89.1733 69.8838C89.2074 70.0805 89.2805 70.2478 89.3925 70.3858C89.5072 70.5201 89.6496 70.6183 89.8196 70.6804C89.9923 70.7387 90.1794 70.7529 90.3808 70.7229C90.5393 70.6993 90.6815 70.6496 90.8072 70.5737C90.9362 70.4973 91.0404 70.3944 91.1195 70.2649L91.3569 70.4616C91.2652 70.6165 91.1381 70.743 90.9755 70.8412C90.8163 70.9389 90.6327 71.0032 90.4246 71.0342ZM93.4124 70.5893C93.1549 70.6277 92.914 70.6064 92.69 70.5254C92.4686 70.4407 92.2831 70.3085 92.1334 70.1291C91.9832 69.9463 91.8859 69.7271 91.8416 69.4714C91.7967 69.2124 91.815 68.976 91.8965 68.7621C91.9779 68.5482 92.1097 68.3705 92.2919 68.229C92.4773 68.0871 92.6988 67.9969 92.9564 67.9586C93.1776 67.9256 93.3848 67.9385 93.5779 67.9972C93.771 68.0559 93.9335 68.1628 94.0655 68.318L93.8336 68.5342C93.7217 68.4163 93.5943 68.3361 93.4514 68.2935C93.3085 68.2508 93.1595 68.2411 93.0043 68.2642C92.8193 68.2917 92.66 68.3592 92.5261 68.4665C92.3917 68.5706 92.2947 68.7044 92.235 68.868C92.1752 69.0316 92.163 69.215 92.1982 69.4183C92.2335 69.6215 92.3071 69.7921 92.4191 69.9302C92.5311 70.0682 92.6688 70.1687 92.8322 70.2318C92.995 70.2917 93.1688 70.3078 93.3538 70.2803C93.509 70.2572 93.6472 70.2046 93.7685 70.1227C93.8898 70.0407 93.984 69.9292 94.051 69.7881L94.3442 69.926C94.2708 70.1084 94.1526 70.2572 93.9897 70.3722C93.8261 70.484 93.6337 70.5564 93.4124 70.5893ZM95.5071 70.2522L95.0962 67.8821L95.2015 67.9623L94.1266 68.1223L94.0738 67.8174L96.397 67.4715L96.4498 67.7764L95.3749 67.9364L95.4479 67.8297L95.8588 70.1999L95.5071 70.2522ZM97.3035 69.9847L96.856 67.4032L97.2077 67.3508L97.5631 69.4013L98.9464 67.0919L99.2584 67.0455L99.706 69.627L99.3543 69.6794L98.9979 67.624L97.6205 69.9375L97.3035 69.9847ZM100.664 69.4843L100.217 66.9028L100.573 66.8497L102.096 68.6558L101.947 68.6779L102.803 66.5178L103.13 66.4691L103.577 69.0507L103.255 69.0986L102.877 66.9153L102.946 66.9352L102.145 68.941L101.987 68.9646L100.535 67.274L100.607 67.2482L100.986 69.4364L100.664 69.4843ZM105.603 68.7743C105.352 68.8117 105.116 68.7896 104.895 68.7081C104.677 68.6229 104.493 68.4906 104.343 68.3111C104.193 68.1283 104.096 67.9091 104.052 67.6534C104.007 67.3944 104.025 67.158 104.106 66.9441C104.188 66.7302 104.318 66.5527 104.497 66.4118C104.676 66.2708 104.892 66.1814 105.147 66.1435C105.404 66.1052 105.642 66.127 105.859 66.2089C106.08 66.2904 106.263 66.4211 106.41 66.6011C106.559 66.7806 106.657 66.9998 106.702 67.2588C106.746 67.5145 106.728 67.7509 106.647 67.9681C106.569 68.1815 106.439 68.3606 106.257 68.5053C106.075 68.6468 105.857 68.7364 105.603 68.7743ZM105.549 68.4645C105.737 68.4365 105.897 68.3707 106.028 68.2671C106.158 68.1602 106.252 68.0252 106.308 67.8621C106.367 67.6953 106.38 67.5119 106.345 67.3119C106.31 67.1086 106.236 66.938 106.124 66.8C106.015 66.6615 105.881 66.5621 105.722 66.5018C105.562 66.4382 105.389 66.4201 105.204 66.4477C105.019 66.4752 104.862 66.5424 104.731 66.6493C104.6 66.7529 104.505 66.8865 104.445 67.05C104.385 67.2136 104.373 67.397 104.408 67.6003C104.443 67.8002 104.516 67.9709 104.629 68.1122C104.741 68.2502 104.877 68.351 105.037 68.4146C105.197 68.4749 105.367 68.4915 105.549 68.4645ZM108.722 68.3098C108.464 68.3482 108.224 68.3269 108 68.2459C107.778 68.1611 107.593 68.029 107.443 67.8496C107.293 67.6668 107.195 67.4476 107.151 67.1919C107.106 66.9329 107.125 66.6964 107.206 66.4825C107.288 66.2686 107.419 66.091 107.601 65.9495C107.787 65.8076 108.008 65.7174 108.266 65.6791C108.487 65.6461 108.694 65.659 108.888 65.7177C109.081 65.7764 109.243 65.8833 109.375 66.0385L109.143 66.2546C109.031 66.1368 108.904 66.0566 108.761 66.0139C108.618 65.9713 108.469 65.9616 108.314 65.9847C108.129 66.0122 107.97 66.0797 107.836 66.187C107.701 66.2911 107.604 66.4249 107.545 66.5885C107.485 66.7521 107.473 66.9355 107.508 67.1388C107.543 67.342 107.617 67.5126 107.729 67.6506C107.841 67.7887 107.978 67.8892 108.142 67.9523C108.305 68.0122 108.478 68.0283 108.663 68.0008C108.819 67.9777 108.957 67.9251 109.078 67.8432C109.199 67.7612 109.294 67.6497 109.361 67.5086L109.654 67.6465C109.58 67.8289 109.462 67.9777 109.299 68.0927C109.136 68.2045 108.943 68.2769 108.722 68.3098ZM110.817 67.9727L110.406 65.6026L110.511 65.6827L109.436 65.8428L109.383 65.5379L111.707 65.192L111.759 65.4969L110.684 65.6569L110.757 65.5502L111.168 67.9204L110.817 67.9727ZM112.613 67.7052L112.166 65.1237L112.517 65.0713L112.873 67.1218L114.256 64.8124L114.568 64.766L115.016 67.3475L114.664 67.3999L114.308 65.3445L112.93 67.658L112.613 67.7052Z" fill="black"/>
<rect width="50.8561" height="11.6261" rx="5.81304" transform="matrix(0.796368 0.625875 -0.666841 0.7289 40.3667 51.4858)" fill="#FFAD81"/>
<path d="M39.7544 60.477L41.9073 58.0587L41.9222 58.194L40.8507 57.3757L41.0607 57.1398L43.3366 58.8779L43.1266 59.1138L42.0591 58.2986L42.2013 58.2833L40.0484 60.7016L39.7544 60.477ZM42.0832 62.2865C41.863 62.1183 41.7068 61.9289 41.6147 61.7181C41.5248 61.505 41.4984 61.2888 41.5357 61.0695C41.5752 60.8478 41.6803 60.6411 41.8509 60.4495C42.0216 60.2578 42.2169 60.122 42.4367 60.0422C42.6593 59.9645 42.8857 59.9433 43.1158 59.9787C43.3509 60.0137 43.5664 60.1061 43.7624 60.2558C43.9611 60.4075 44.0998 60.5836 44.1785 60.7841C44.2621 60.9842 44.2814 61.193 44.2366 61.4106C44.1939 61.6257 44.0862 61.8303 43.9133 62.0245C43.9024 62.0368 43.889 62.0493 43.8732 62.062C43.8623 62.0743 43.8502 62.0878 43.8371 62.1025L41.9962 60.6967L42.1702 60.5013L43.858 61.7902L43.6763 61.7815C43.801 61.6414 43.8779 61.4917 43.907 61.3323C43.941 61.1725 43.929 61.0188 43.8709 60.8712C43.8128 60.7236 43.7099 60.5934 43.5622 60.4806C43.4172 60.3699 43.2596 60.3012 43.0894 60.2744C42.9193 60.2477 42.7527 60.265 42.5898 60.3264C42.4269 60.3877 42.282 60.4897 42.1551 60.6322L42.119 60.6728C41.9877 60.8202 41.9067 60.9771 41.8759 61.1435C41.8499 61.3095 41.8716 61.4726 41.9409 61.6329C42.0152 61.7928 42.1342 61.9353 42.298 62.0604C42.4269 62.1588 42.565 62.2292 42.7123 62.2715C42.8623 62.3158 43.0158 62.3258 43.173 62.3013L43.1831 62.5939C42.9972 62.6254 42.8091 62.6138 42.6186 62.5591C42.4308 62.5066 42.2523 62.4157 42.0832 62.2865ZM43.6027 63.416L45.3257 61.4806L45.6117 61.699L44.8503 62.5543L46.1836 63.5725L46.945 62.7173L47.231 62.9357L45.5081 64.871L45.2221 64.6526L45.9834 63.7974L44.6501 62.7791L43.8887 63.6344L43.6027 63.416ZM47.1303 66.1409C46.9101 65.9727 46.754 65.7833 46.6618 65.5726C46.5719 65.3594 46.5456 65.1432 46.5829 64.924C46.6224 64.7023 46.7274 64.4956 46.8981 64.3039C47.0687 64.1122 47.264 63.9765 47.4839 63.8967C47.7065 63.819 47.9329 63.7978 48.163 63.8332C48.398 63.8682 48.6135 63.9605 48.8096 64.1102C49.0083 64.262 49.147 64.4381 49.2257 64.6386C49.3092 64.8386 49.3286 65.0474 49.2838 65.265C49.2411 65.4801 49.1334 65.6848 48.9605 65.8789C48.9496 65.8912 48.9362 65.9037 48.9204 65.9164C48.9094 65.9287 48.8974 65.9422 48.8843 65.957L47.0434 64.5511L47.2173 64.3557L48.9051 65.6447L48.7234 65.636C48.8481 65.4959 48.9251 65.3461 48.9542 65.1867C48.9882 65.0269 48.9762 64.8732 48.9181 64.7257C48.86 64.5781 48.7571 64.4479 48.6094 64.3351C48.4644 64.2244 48.3068 64.1556 48.1366 64.1289C47.9664 64.1021 47.7999 64.1194 47.637 64.1808C47.4741 64.2422 47.3292 64.3441 47.2023 64.4867L47.1662 64.5272C47.0349 64.6747 46.9539 64.8316 46.923 64.998C46.8971 65.1639 46.9188 65.3271 46.9881 65.4873C47.0623 65.6472 47.1813 65.7897 47.3451 65.9148C47.474 66.0133 47.6121 66.0836 47.7594 66.1259C47.9094 66.1703 48.063 66.1802 48.2201 66.1557L48.2303 66.4484C48.0444 66.4798 47.8562 66.4682 47.6658 66.4136C47.478 66.361 47.2995 66.2701 47.1303 66.1409ZM48.6499 67.2704L50.3729 65.3351L51.3074 66.0487C51.5464 66.2313 51.6972 66.4166 51.7598 66.6048C51.825 66.795 51.7854 66.9712 51.641 67.1334C51.501 67.2907 51.3269 67.3621 51.1188 67.3476C50.9128 67.3307 50.7024 67.2402 50.4875 67.0761L50.6129 67.0417C50.8653 67.2345 51.0123 67.419 51.0539 67.5953C51.0955 67.7715 51.0441 67.9408 50.8997 68.103C50.7509 68.2701 50.5678 68.3491 50.3504 68.3399C50.1378 68.3304 49.8919 68.2189 49.6126 68.0057L48.6499 67.2704ZM49.1116 67.2762L49.7843 67.79C49.9643 67.9274 50.1228 68.0052 50.2601 68.0233C50.4022 68.041 50.5258 67.9909 50.6308 67.8729C50.7358 67.7549 50.7708 67.6371 50.7357 67.5195C50.7005 67.4018 50.593 67.2743 50.4131 67.1369L49.7122 66.6016L49.1116 67.2762ZM49.8861 66.4063L50.5226 66.8923C50.6864 67.0174 50.8364 67.0845 50.9727 67.0936C51.1116 67.1048 51.2292 67.0563 51.3255 66.9481C51.4218 66.84 51.4497 66.7251 51.4092 66.6033C51.3714 66.4836 51.2706 66.3612 51.1068 66.2361L50.4703 65.7501L49.8861 66.4063ZM53.0825 70.6555L54.8055 68.7202L55.0915 68.9386L53.3685 70.8739L53.0825 70.6555ZM53.0261 68.507C53.2898 68.7124 53.4444 68.9214 53.49 69.1337C53.5355 69.346 53.4697 69.5517 53.2925 69.7508C53.1087 69.9572 52.8924 70.0583 52.6435 70.054C52.3947 70.0498 52.1317 69.9398 51.8546 69.724L51.0201 69.0805L52.743 67.1451L53.029 67.3635L52.4285 68.0381L53.0261 68.507ZM52.0117 69.5096C52.2083 69.6638 52.389 69.742 52.554 69.7441C52.7239 69.7459 52.8734 69.6743 53.0025 69.5293C53.1315 69.3843 53.1759 69.2406 53.1357 69.0984C53.0976 68.9537 52.9789 68.8032 52.7797 68.647L52.2545 68.2335L51.4866 69.0962L52.0117 69.5096ZM54.9922 72.1449C54.772 71.9767 54.6158 71.7873 54.5237 71.5766C54.4338 71.3634 54.4075 71.1472 54.4447 70.928C54.4842 70.7063 54.5893 70.4996 54.7599 70.3079C54.9306 70.1162 55.1259 69.9805 55.3458 69.9007C55.5683 69.8229 55.7947 69.8018 56.0248 69.8372C56.2599 69.8721 56.4754 69.9645 56.6714 70.1142C56.8701 70.266 57.0088 70.4421 57.0875 70.6425C57.1711 70.8426 57.1904 71.0514 57.1456 71.269C57.1029 71.4841 56.9952 71.6888 56.8223 71.8829C56.8114 71.8952 56.798 71.9077 56.7822 71.9204C56.7713 71.9327 56.7592 71.9462 56.7461 71.961L54.9052 70.5551L55.0792 70.3597L56.767 71.6487L56.5853 71.64C56.71 71.4999 56.7869 71.3501 56.816 71.1907C56.85 71.0309 56.838 70.8772 56.7799 70.7296C56.7218 70.5821 56.6189 70.4519 56.4712 70.3391C56.3262 70.2283 56.1686 70.1596 55.9985 70.1328C55.8283 70.1061 55.6617 70.1234 55.4988 70.1848C55.3359 70.2462 55.191 70.3481 55.0641 70.4907L55.028 70.5312C54.8968 70.6787 54.8157 70.8356 54.7849 71.0019C54.7589 71.1679 54.7806 71.331 54.85 71.4913C54.9242 71.6512 55.0432 71.7937 55.207 71.9188C55.3359 72.0172 55.474 72.0876 55.6213 72.1299C55.7713 72.1743 55.9248 72.1842 56.082 72.1597L56.0921 72.4523C55.9062 72.4838 55.7181 72.4722 55.5276 72.4176C55.3398 72.365 55.1613 72.2741 54.9922 72.1449ZM58.7986 75.0209L59.1793 74.5932L59.2296 74.514L59.8663 73.7988C60.0128 73.6341 60.0745 73.4686 60.0512 73.3022C60.0306 73.1378 59.921 72.9798 59.7222 72.828C59.5853 72.7234 59.4364 72.6448 59.2757 72.5923C59.115 72.5397 58.961 72.515 58.8138 72.5182L58.8589 72.2244C59.0407 72.2229 59.2265 72.2574 59.4162 72.328C59.6082 72.3962 59.7874 72.4938 59.9539 72.621C60.2278 72.8302 60.3828 73.0538 60.419 73.292C60.4599 73.5297 60.3678 73.7751 60.1424 74.0283L59.0725 75.23L58.7986 75.0209ZM58.0531 74.4825C57.8947 74.3615 57.7771 74.2325 57.7006 74.0956C57.6288 73.9583 57.5993 73.8242 57.6119 73.6935C57.6267 73.5603 57.6834 73.4384 57.7818 73.3278C57.8715 73.2271 57.978 73.1556 58.1012 73.1135C58.2293 73.0709 58.3743 73.0702 58.5362 73.1113C58.703 73.152 58.8871 73.2492 59.0885 73.403L59.8176 73.9598L59.6437 74.1552L58.9226 73.6046C58.7186 73.4487 58.5467 73.3732 58.4071 73.378C58.2701 73.3849 58.1579 73.4375 58.0703 73.5358C57.9719 73.6464 57.9401 73.7707 57.975 73.9089C58.01 74.047 58.112 74.1807 58.2812 74.3099C58.4423 74.4329 58.6102 74.5054 58.7847 74.5272C58.9641 74.5486 59.1376 74.516 59.3051 74.4292L59.2087 74.659C59.0412 74.7458 58.8564 74.776 58.6543 74.7497C58.4549 74.7254 58.2545 74.6363 58.0531 74.4825ZM60.6231 76.4452C60.4136 76.2852 60.2628 76.0999 60.1707 75.8891C60.0835 75.678 60.0585 75.4629 60.0958 75.2436C60.1353 75.0219 60.2403 74.8152 60.411 74.6235C60.5838 74.4294 60.7829 74.2945 61.0082 74.2188C61.2334 74.1431 61.4652 74.126 61.7034 74.1676C61.9443 74.2112 62.1694 74.313 62.3789 74.4729C62.5588 74.6103 62.6928 74.7663 62.781 74.941C62.8691 75.1156 62.8979 75.2986 62.8674 75.49L62.5357 75.4597C62.5507 75.306 62.5253 75.1648 62.4595 75.0361C62.3936 74.9073 62.2976 74.7948 62.1714 74.6984C62.021 74.5836 61.8569 74.5119 61.6792 74.4835C61.5037 74.4527 61.3307 74.4671 61.1602 74.5269C60.9897 74.5866 60.8367 74.6926 60.701 74.845C60.5654 74.9974 60.4821 75.1568 60.4513 75.3231C60.4205 75.4895 60.4371 75.6508 60.501 75.807C60.5672 75.9607 60.6754 76.095 60.8258 76.2098C60.952 76.3062 61.0896 76.3721 61.2386 76.4074C61.3876 76.4428 61.541 76.4402 61.6989 76.3997L61.7942 76.6955C61.5994 76.7572 61.3999 76.7659 61.1958 76.7215C60.9939 76.6747 60.803 76.5826 60.6231 76.4452ZM61.9425 77.4218L63.6655 75.4864L65.5668 76.9384L63.8438 78.8738L63.5578 78.6554L65.1397 76.8785L65.1498 77.004L63.6755 75.878L63.8104 75.8634L62.2285 77.6402L61.9425 77.4218ZM65.4662 80.1438C65.246 79.9756 65.0898 79.7861 64.9977 79.5754C64.9078 79.3623 64.8815 79.1461 64.9187 78.9268C64.9582 78.7051 65.0633 78.4984 65.2339 78.3067C65.4046 78.115 65.5999 77.9793 65.8198 77.8995C66.0423 77.8218 66.2687 77.8006 66.4989 77.836C66.7339 77.871 66.9494 77.9634 67.1454 78.1131C67.3442 78.2648 67.4829 78.4409 67.5615 78.6414C67.6451 78.8414 67.6645 79.0503 67.6196 79.2679C67.577 79.483 67.4692 79.6876 67.2964 79.8818C67.2854 79.8941 67.272 79.9066 67.2562 79.9193C67.2453 79.9315 67.2333 79.9451 67.2201 79.9598L65.3793 78.554L65.5532 78.3586L67.241 79.6475L67.0593 79.6388C67.184 79.4987 67.2609 79.349 67.2901 79.1896C67.3241 79.0298 67.312 78.8761 67.2539 78.7285C67.1958 78.5809 67.0929 78.4507 66.9452 78.3379C66.8002 78.2272 66.6426 78.1584 66.4725 78.1317C66.3023 78.105 66.1358 78.1223 65.9728 78.1836C65.8099 78.245 65.665 78.347 65.5381 78.4895L65.502 78.5301C65.3708 78.6775 65.2897 78.8344 65.2589 79.0008C65.2329 79.1668 65.2546 79.3299 65.324 79.4902C65.3982 79.6501 65.5172 79.7926 65.681 79.9177C65.8099 80.0161 65.948 80.0865 66.0953 80.1288C66.2453 80.1731 66.3988 80.1831 66.556 80.1586L66.5661 80.4512C66.3803 80.4826 66.1921 80.471 66.0016 80.4164C65.8138 80.3638 65.6354 80.273 65.4662 80.1438ZM68.5366 82.4576L68.5198 80.8347L68.8723 80.8872L68.875 82.716L68.5366 82.4576ZM66.9858 81.2733L68.7087 79.3379L68.9947 79.5563L67.2718 81.4917L66.9858 81.2733ZM67.9511 80.5614L68.1513 80.3365L68.832 80.8564L68.6318 81.0813L67.9511 80.5614ZM68.7652 81.0531L68.5322 80.8132L70.2273 80.4976L70.5375 80.7345L68.7652 81.0531ZM69.6053 83.2738L71.1872 81.4969L71.1973 81.6223L70.3232 80.9548L70.5267 80.7262L72.4159 82.169L72.2124 82.3976L71.3383 81.73L71.4732 81.7153L69.8913 83.4922L69.6053 83.2738ZM73.0883 85.9337L74.8113 83.9983L75.0973 84.2167L73.3743 86.1521L73.0883 85.9337ZM73.0319 83.7851C73.2956 83.9906 73.4502 84.1995 73.4958 84.4118C73.5413 84.6242 73.4755 84.8298 73.2983 85.0289C73.1145 85.2354 72.8982 85.3365 72.6494 85.3322C72.4005 85.3279 72.1375 85.2179 71.8604 85.0022L71.0259 84.3587L72.7488 82.4233L73.0348 82.6417L72.4343 83.3163L73.0319 83.7851ZM72.0175 84.7878C72.2141 84.942 72.3948 85.0202 72.5598 85.0223C72.7297 85.0241 72.8792 84.9524 73.0083 84.8074C73.1374 84.6624 73.1818 84.5188 73.1415 84.3766C73.1034 84.2319 72.9847 84.0814 72.7855 83.9251L72.2603 83.5117L71.4924 84.3743L72.0175 84.7878Z" fill="black"/>
<rect width="30.6107" height="10.6143" rx="5.30714" transform="matrix(0.958871 0.293138 -0.273654 0.958628 5.04053 66.2992)" fill="#C9BFFF"/>
<path d="M7.03438 74.5191L7.99217 71.1639L9.24829 71.5479C9.53275 71.6348 9.76404 71.7559 9.94214 71.9111C10.1212 72.0631 10.2404 72.242 10.2998 72.4478C10.3633 72.6514 10.3604 72.8746 10.2911 73.1174C10.2236 73.3539 10.1093 73.5413 9.94815 73.6796C9.79113 73.8158 9.59711 73.8989 9.3661 73.929C9.13509 73.9592 8.87735 73.9308 8.59289 73.8438L7.53333 73.5199L7.73944 73.4005L7.38916 74.6275L7.03438 74.5191ZM7.73123 73.4292L7.62227 73.2083L8.67223 73.5293C9.00784 73.6319 9.28246 73.6377 9.49611 73.5467C9.71386 73.4534 9.86059 73.2742 9.93631 73.009C10.0129 72.7405 9.98432 72.506 9.85049 72.3052C9.71986 72.1055 9.48673 71.9543 9.15113 71.8517L8.10117 71.5307L8.30727 71.4113L7.73123 73.4292ZM11.3151 75.8538C11.053 75.7737 10.8384 75.649 10.6712 75.4798C10.505 75.3073 10.3933 75.1082 10.3361 74.8822C10.2799 74.6531 10.2874 74.4139 10.3585 74.1647C10.4297 73.9155 10.5454 73.7111 10.7056 73.5516C10.869 73.3931 11.0589 73.2879 11.2753 73.2359C11.4958 73.1817 11.7227 73.1903 11.956 73.2616C12.1925 73.3339 12.3864 73.4522 12.5375 73.6166C12.6928 73.7787 12.7954 73.9733 12.8452 74.2005C12.896 74.4245 12.8853 74.6627 12.8132 74.9151C12.8087 74.9311 12.8021 74.9482 12.7934 74.9664C12.7888 74.9824 12.7838 74.9999 12.7783 75.0191L10.5873 74.3493L10.6598 74.0953L12.6687 74.7094L12.5057 74.769C12.5577 74.5869 12.5638 74.4133 12.524 74.2482C12.4884 74.081 12.4148 73.9369 12.3034 73.816C12.192 73.6951 12.0483 73.6077 11.8725 73.554C11.6999 73.5012 11.5335 73.4938 11.3733 73.5316C11.213 73.5695 11.074 73.6486 10.9563 73.769C10.8385 73.8893 10.7532 74.0421 10.7003 74.2275L10.6852 74.2802C10.6305 74.4719 10.6237 74.654 10.6649 74.8264C10.7101 74.9966 10.796 75.1462 10.9225 75.2752C11.0531 75.402 11.2159 75.4951 11.4109 75.5548C11.5643 75.6017 11.7143 75.618 11.8608 75.6037C12.0106 75.5904 12.1494 75.5425 12.2772 75.46L12.406 75.7391C12.2558 75.8391 12.086 75.8984 11.8965 75.9169C11.7103 75.9364 11.5164 75.9153 11.3151 75.8538ZM14.2069 76.7378C13.9576 76.6616 13.7493 76.5389 13.5822 76.3697C13.4191 76.1982 13.309 75.9995 13.2519 75.7736C13.1957 75.5445 13.2031 75.3053 13.2743 75.0561C13.3463 74.8036 13.4657 74.5987 13.6323 74.4411C13.7989 74.2836 13.9952 74.1803 14.2212 74.1313C14.4503 74.0832 14.6896 74.0973 14.9389 74.1735C15.153 74.239 15.3345 74.3396 15.4834 74.4755C15.6323 74.6113 15.7326 74.7775 15.7842 74.9739L15.4809 75.0688C15.4311 74.9146 15.3509 74.7876 15.2404 74.6878C15.1298 74.588 14.9995 74.5151 14.8493 74.4692C14.6703 74.4145 14.497 74.4067 14.3295 74.4458C14.1628 74.4817 14.017 74.5605 13.8919 74.6821C13.7668 74.8036 13.676 74.9635 13.6195 75.1616C13.5629 75.3597 13.5552 75.545 13.5964 75.7174C13.6375 75.8898 13.7181 76.0395 13.8382 76.1665C13.9593 76.2904 14.1093 76.3797 14.2883 76.4344C14.4385 76.4803 14.5862 76.4925 14.7314 76.4709C14.8766 76.4492 15.0101 76.3893 15.132 76.291L15.3368 76.5413C15.1912 76.674 15.0198 76.7571 14.8225 76.7906C14.6262 76.8209 14.421 76.8033 14.2069 76.7378ZM15.5459 78.1582C15.4277 78.1221 15.3197 78.0682 15.2219 77.9966C15.1274 77.9261 15.0527 77.8407 14.9979 77.7405L15.2286 77.5349C15.2752 77.6151 15.3307 77.6825 15.3951 77.7369C15.4618 77.7955 15.5415 77.839 15.6342 77.8673C15.746 77.9015 15.851 77.8989 15.9492 77.8594C16.0496 77.8241 16.159 77.7394 16.2772 77.6053L16.5455 77.286L16.5989 77.245L18.3009 75.2274L18.6365 75.33L16.571 77.7629C16.4542 77.9043 16.3389 78.0098 16.2253 78.0793C16.1148 78.1497 16.0045 78.189 15.8945 78.197C15.7836 78.2083 15.6674 78.1954 15.5459 78.1582ZM16.4689 77.4815L16.0475 74.5385L16.4023 74.6469L16.7688 77.2709L16.4689 77.4815ZM19.6929 78.415C19.4756 78.3486 19.2932 78.2389 19.1457 78.0861C18.9991 77.9301 18.8999 77.7418 18.8483 77.521C18.8007 77.298 18.8162 77.0491 18.8946 76.7743C18.9731 76.4995 19.0903 76.2834 19.2464 76.1262C19.4034 75.9657 19.584 75.8628 19.7881 75.8175C19.9921 75.7722 20.2044 75.7832 20.425 75.8507C20.6647 75.924 20.8633 76.0437 21.0209 76.21C21.1826 76.3741 21.2899 76.5702 21.3429 76.7984C21.3969 77.0233 21.3878 77.262 21.3158 77.5144C21.2428 77.7701 21.1246 77.9772 20.9612 78.1357C20.7978 78.2942 20.6047 78.3984 20.3819 78.4484C20.1623 78.4994 19.9327 78.4883 19.6929 78.415ZM18.1351 78.9237L19.1189 75.4774L19.4449 75.5771L19.2287 76.3344L19.0515 76.8274L18.9544 77.3502L18.4755 79.0278L18.1351 78.9237ZM19.7552 78.1057C19.9342 78.1604 20.1054 78.1693 20.2688 78.1324C20.4332 78.0924 20.5779 78.0115 20.7029 77.8899C20.8289 77.7652 20.9197 77.6053 20.9754 77.4104C21.031 77.2155 21.0383 77.0318 20.9971 76.8594C20.956 76.687 20.8769 76.5378 20.76 76.4117C20.6431 76.2856 20.4952 76.1952 20.3162 76.1405C20.1372 76.0858 19.9639 76.078 19.7964 76.1171C19.632 76.1572 19.4873 76.238 19.3622 76.3596C19.2404 76.4822 19.1516 76.6409 19.096 76.8358C19.0403 77.0308 19.031 77.2155 19.0681 77.3901C19.1092 77.5625 19.1882 77.7118 19.3052 77.8378C19.4262 77.9617 19.5762 78.051 19.7552 78.1057ZM22.6872 79.3304C22.4379 79.2542 22.2297 79.1315 22.0626 78.9622C21.8995 78.7908 21.7894 78.5921 21.7323 78.3662C21.6761 78.1371 21.6835 77.8979 21.7547 77.6486C21.8267 77.3962 21.9461 77.1912 22.1127 77.0337C22.2793 76.8762 22.4756 76.7729 22.7015 76.7238C22.9307 76.6758 23.17 76.6898 23.4193 76.7661C23.6334 76.8315 23.8149 76.9322 23.9638 77.068C24.1127 77.2039 24.213 77.37 24.2646 77.5665L23.9613 77.6614C23.9114 77.5072 23.8313 77.3802 23.7208 77.2804C23.6102 77.1806 23.4799 77.1077 23.3296 77.0618C23.1507 77.0071 22.9774 76.9992 22.8098 77.0384C22.6432 77.0743 22.4974 77.153 22.3723 77.2746C22.2472 77.3962 22.1564 77.556 22.0999 77.7542C22.0433 77.9523 22.0356 78.1375 22.0767 78.3099C22.1179 78.4823 22.1985 78.632 22.3186 78.7591C22.4397 78.883 22.5897 78.9722 22.7687 79.027C22.9189 79.0729 23.0666 79.085 23.2118 79.0634C23.3569 79.0418 23.4905 78.9818 23.6123 78.8836L23.8172 79.1338C23.6716 79.2665 23.5002 79.3496 23.3029 79.3831C23.1066 79.4134 22.9014 79.3959 22.6872 79.3304ZM26.7476 80.5456L27.4659 78.0292L27.8063 78.1333L27.088 80.6497L26.7476 80.5456ZM25.8177 78.4894C26.1332 78.5894 26.3544 78.7335 26.4814 78.9217C26.6084 79.1099 26.6349 79.3334 26.561 79.5922C26.4844 79.8606 26.3361 80.0394 26.1161 80.1285C25.896 80.2175 25.6203 80.2097 25.2888 80.1049L24.2929 79.7952L25.0112 77.2788L25.3516 77.3829L25.1012 78.26L25.8177 78.4894ZM25.3387 79.8387C25.5743 79.9142 25.7649 79.9221 25.9105 79.8624C26.0603 79.8005 26.162 79.6752 26.2159 79.4867C26.2697 79.2982 26.2498 79.1427 26.1561 79.0203C26.0634 78.8946 25.8976 78.7936 25.6588 78.7171L25.0287 78.514L24.7086 79.6356L25.3387 79.8387Z" fill="black"/>
<rect width="37.407" height="9.80607" rx="4.90304" transform="matrix(1.00496 0.0849585 -0.0970092 0.985579 5.07861 94.1074)" fill="#1CCFE7"/>
<path d="M8.69305 100.698L9.01124 97.4656L9.10203 97.5727L7.76543 97.4597L7.79648 97.1443L10.6355 97.3843L10.6045 97.6997L9.27288 97.5871L9.37805 97.4966L9.05986 100.729L8.69305 100.698ZM11.6211 100.971C11.3665 100.949 11.1426 100.874 10.9492 100.745C10.7595 100.613 10.6158 100.443 10.5179 100.236C10.4204 100.026 10.3843 99.7929 10.4095 99.5366C10.435 99.2771 10.5161 99.0537 10.6528 98.8665C10.7894 98.6793 10.9637 98.5383 11.1757 98.4436C11.3877 98.3489 11.6227 98.3125 11.8806 98.3343C12.1419 98.3564 12.3675 98.4318 12.5575 98.5604C12.7509 98.6894 12.8948 98.8573 12.9893 99.064C13.0871 99.2711 13.1233 99.5043 13.0978 99.7639C13.0725 100.02 12.9914 100.243 12.8545 100.434C12.7212 100.621 12.5467 100.764 12.331 100.862C12.1157 100.956 11.8791 100.993 11.6211 100.971ZM11.6517 100.66C11.8426 100.676 12.0158 100.65 12.1713 100.58C12.3271 100.507 12.4543 100.398 12.5529 100.254C12.6552 100.107 12.7162 99.9337 12.736 99.7333C12.756 99.5296 12.7299 99.3485 12.6577 99.19C12.5888 99.0318 12.4847 98.9054 12.3454 98.8108C12.2064 98.713 12.0432 98.6561 11.8556 98.6402C11.668 98.6244 11.4963 98.6529 11.3405 98.7259C11.185 98.7955 11.0563 98.9023 10.9543 99.046C10.8523 99.1898 10.7913 99.3635 10.7713 99.5672C10.7515 99.7676 10.7776 99.9487 10.8495 100.11C10.9217 100.269 11.0274 100.397 11.1663 100.495C11.3056 100.59 11.4674 100.645 11.6517 100.66ZM15.4583 100.167C15.2978 100.22 15.1368 100.259 14.9755 100.285C14.8178 100.308 14.662 100.313 14.5079 100.3C14.1963 100.274 13.9569 100.184 13.7896 100.031C13.6226 99.8745 13.5535 99.65 13.5823 99.3576L13.6657 98.51L14.0175 98.5398L13.936 99.3677C13.9166 99.5648 13.9673 99.7181 14.0883 99.8277C14.2092 99.9373 14.3802 100.001 14.6013 100.02C14.7353 100.031 14.8776 100.027 15.0283 100.007C15.1792 99.9829 15.3333 99.9446 15.4905 99.8916L15.4583 100.167ZM15.3205 101.259L15.5752 98.6715L15.9319 98.7016L15.6773 101.289L15.3205 101.259ZM18.5747 101.534L17.6155 100.161L17.9289 100.013L18.9968 101.569L18.5747 101.534ZM16.6402 101.37L16.8948 98.783L17.2516 98.8132L16.9969 101.4L16.6402 101.37ZM16.9999 100.238L17.0295 99.9372L17.8787 100.009L17.8491 100.31L16.9999 100.238ZM17.9397 100.213L17.6129 100.136L18.7892 98.9432L19.1761 98.9759L17.9397 100.213ZM19.5096 101.613L19.7643 99.0256L20.121 99.0558L19.9188 101.111L21.8847 99.2049L22.2013 99.2316L21.9467 101.819L21.5899 101.789L21.7926 99.7287L19.8312 101.64L19.5096 101.613ZM25.543 102.148C25.3152 102.128 25.1142 102.06 24.94 101.943C24.7661 101.822 24.6334 101.66 24.5419 101.457C24.4541 101.251 24.4241 101.006 24.4519 100.724C24.4798 100.441 24.5568 100.208 24.6831 100.023C24.8097 99.8347 24.9701 99.6976 25.1644 99.6113C25.3586 99.525 25.5713 99.4917 25.8025 99.5112C26.0537 99.5325 26.2727 99.6073 26.4593 99.7357C26.6496 99.8611 26.7919 100.029 26.8861 100.239C26.9805 100.446 27.015 100.679 26.9895 100.938C26.9636 101.201 26.884 101.426 26.7507 101.614C26.6174 101.801 26.4448 101.942 26.2328 102.037C26.0242 102.132 25.7942 102.169 25.543 102.148ZM24.0896 102.964L24.4383 99.4207L24.78 99.4496L24.7034 100.228L24.6173 100.743L24.6161 101.269L24.4463 102.994L24.0896 102.964ZM25.5484 101.835C25.736 101.851 25.9075 101.824 26.063 101.754C26.2188 101.681 26.3477 101.573 26.4497 101.429C26.552 101.282 26.613 101.109 26.6327 100.908C26.6524 100.708 26.6262 100.528 26.554 100.37C26.4817 100.211 26.3761 100.083 26.2372 99.9852C26.0982 99.8873 25.9349 99.8305 25.7473 99.8146C25.5597 99.7988 25.3863 99.8272 25.2272 99.8998C25.0714 99.9728 24.9425 100.081 24.8405 100.225C24.7419 100.369 24.6827 100.541 24.663 100.742C24.6433 100.942 24.6677 101.123 24.7362 101.284C24.8084 101.443 24.914 101.571 25.053 101.669C25.1957 101.764 25.3608 101.819 25.5484 101.835ZM28.6611 102.411C28.4065 102.39 28.1825 102.314 27.9892 102.185C27.7995 102.054 27.6558 101.884 27.5579 101.677C27.4604 101.467 27.4243 101.233 27.4495 100.977C27.475 100.718 27.5561 100.494 27.6928 100.307C27.8294 100.12 28.0037 99.9789 28.2157 99.8842C28.4277 99.7895 28.6627 99.753 28.9206 99.7748C29.1819 99.7969 29.4075 99.8723 29.5975 100.001C29.7909 100.13 29.9348 100.298 30.0293 100.505C30.1271 100.712 30.1633 100.945 30.1378 101.204C30.1125 101.461 30.0314 101.684 29.8945 101.875C29.7612 102.062 29.5867 102.205 29.371 102.302C29.1557 102.397 28.919 102.433 28.6611 102.411ZM28.6917 102.101C28.8826 102.117 29.0558 102.09 29.2113 102.02C29.3671 101.948 29.4943 101.839 29.5929 101.695C29.6952 101.548 29.7562 101.374 29.776 101.174C29.796 100.97 29.7699 100.789 29.6977 100.631C29.6288 100.472 29.5247 100.346 29.3854 100.251C29.2464 100.154 29.0832 100.097 28.8956 100.081C28.708 100.065 28.5363 100.093 28.3805 100.166C28.225 100.236 28.0963 100.343 27.9943 100.487C27.8923 100.63 27.8313 100.804 27.8113 101.008C27.7915 101.208 27.8176 101.389 27.8895 101.551C27.9617 101.709 28.0673 101.838 28.2063 101.936C28.3456 102.03 28.5074 102.085 28.6917 102.101ZM31.8254 102.679C31.5642 102.657 31.3352 102.581 31.1385 102.452C30.9454 102.319 30.8 102.15 30.7022 101.943C30.6046 101.732 30.5685 101.499 30.5937 101.243C30.6193 100.983 30.7004 100.76 30.837 100.573C30.9737 100.386 31.1496 100.245 31.365 100.15C31.5837 100.056 31.8237 100.02 32.0849 100.042C32.3094 100.061 32.5079 100.121 32.6803 100.222C32.8528 100.323 32.9826 100.463 33.0696 100.642L32.7858 100.797C32.7083 100.658 32.6056 100.552 32.4778 100.478C32.3499 100.404 32.2073 100.361 32.0498 100.347C31.8623 100.332 31.6889 100.36 31.5297 100.433C31.3709 100.502 31.2405 100.609 31.1385 100.752C31.0366 100.896 30.9755 101.07 30.9555 101.274C30.9355 101.477 30.9615 101.658 31.0338 101.817C31.106 101.975 31.2133 102.104 31.3556 102.202C31.4983 102.297 31.6634 102.352 31.851 102.368C32.0084 102.381 32.1572 102.362 32.2974 102.311C32.4375 102.26 32.5591 102.174 32.6621 102.054L32.911 102.254C32.7907 102.413 32.6357 102.529 32.4461 102.602C32.2568 102.672 32.0499 102.698 31.8254 102.679ZM33.9569 102.834L34.1907 100.459L34.272 100.56L33.1816 100.468L33.2116 100.162L35.5683 100.362L35.5382 100.667L34.4478 100.575L34.5475 100.489L34.3137 102.864L33.9569 102.834ZM37.4173 103.127L37.4736 102.555L37.4677 102.46L37.5618 101.504C37.5835 101.284 37.5365 101.109 37.4208 100.98C37.3085 100.852 37.1284 100.777 36.8805 100.756C36.7097 100.741 36.5445 100.756 36.3849 100.798C36.2253 100.841 36.0874 100.904 35.9711 100.987L35.836 100.712C35.981 100.612 36.1502 100.54 36.3436 100.497C36.5374 100.45 36.7381 100.436 36.9458 100.453C37.2875 100.482 37.5422 100.588 37.7099 100.771C37.8814 100.951 37.9504 101.211 37.9171 101.549L37.759 103.156L37.4173 103.127ZM36.5054 103.074C36.3077 103.058 36.1383 103.012 35.9971 102.937C35.8595 102.859 35.7577 102.761 35.6916 102.643C35.6259 102.521 35.6003 102.387 35.6148 102.239C35.6281 102.104 35.6719 101.985 35.7462 101.882C35.8242 101.776 35.9401 101.697 36.094 101.643C36.2515 101.587 36.4559 101.57 36.7071 101.591L37.6166 101.668L37.5909 101.929L36.6915 101.853C36.4369 101.831 36.255 101.861 36.1458 101.941C36.0399 102.021 35.9805 102.127 35.9675 102.259C35.953 102.407 36 102.53 36.1085 102.628C36.217 102.727 36.3768 102.785 36.5878 102.803C36.7888 102.82 36.9657 102.79 37.1185 102.714C37.2749 102.634 37.3951 102.512 37.4789 102.347L37.5355 102.595C37.4517 102.76 37.321 102.887 37.1435 102.974C36.9693 103.062 36.7566 103.096 36.5054 103.074Z" fill="black"/>
<path d="M95.3954 59.4555C93.0339 57.5437 92.7587 54.255 94.7807 52.11L108.817 37.2193C110.839 35.0742 114.392 34.8852 116.753 36.7969C119.115 38.7087 119.39 41.9974 117.368 44.1425L103.332 59.0331C101.31 61.1782 97.7568 61.3673 95.3954 59.4555Z" fill="#FF85CE"/>
<path d="M100.365 56.3546L97.7763 54.2592L97.9228 54.2514L97.0241 55.2047L96.7716 55.0003L98.6804 52.9753L98.9329 53.1797L98.0377 54.1295L98.0229 53.9975L100.611 56.093L100.365 56.3546ZM102.792 53.7792L102.335 53.4086L102.25 53.3587L101.484 52.739C101.308 52.5963 101.13 52.532 100.949 52.5462C100.771 52.5579 100.599 52.6522 100.432 52.829C100.317 52.9508 100.23 53.0848 100.172 53.2309C100.113 53.3771 100.084 53.5182 100.086 53.6542L99.7684 53.5996C99.7691 53.4317 99.8088 53.2616 99.8876 53.0895C99.9637 52.9152 100.072 52.754 100.211 52.6059C100.441 52.3621 100.685 52.2289 100.943 52.2061C101.201 52.1787 101.465 52.2747 101.736 52.4941L103.022 53.5354L102.792 53.7792ZM102.201 54.4438C102.068 54.5848 101.927 54.6876 101.778 54.7523C101.628 54.8125 101.483 54.8338 101.342 54.8164C101.198 54.7968 101.067 54.7391 100.948 54.6433C100.84 54.5559 100.764 54.4544 100.72 54.3388C100.676 54.2186 100.677 54.0846 100.724 53.9369C100.77 53.7847 100.877 53.6189 101.046 53.4397L101.658 52.791L101.867 52.9603L101.262 53.6019C101.091 53.7835 101.007 53.9388 101.01 54.068C101.016 54.1948 101.072 54.3008 101.177 54.386C101.295 54.4818 101.429 54.5167 101.579 54.4905C101.729 54.4644 101.875 54.3761 102.017 54.2255C102.152 54.0822 102.232 53.9304 102.258 53.7701C102.284 53.6054 102.25 53.4437 102.159 53.2852L102.406 53.3844C102.498 53.5429 102.528 53.7149 102.497 53.9004C102.468 54.0835 102.369 54.2646 102.201 54.4438ZM103.299 53.2347L103.075 53.022C103.093 53.0074 103.112 52.995 103.13 52.985C103.149 52.9704 103.164 52.9571 103.175 52.9451C103.247 52.8687 103.273 52.7822 103.253 52.6857C103.234 52.5868 103.184 52.4828 103.101 52.3737C103.019 52.2647 102.916 52.1521 102.794 52.0361C102.668 51.9179 102.542 51.8009 102.415 51.6852L101.707 51.0556L103.008 49.6757L105.079 51.3527L104.84 51.6072L102.93 50.0611L103.074 50.0637L102.107 51.0887L102.078 50.9575L102.651 51.4717C102.823 51.6237 102.981 51.7753 103.126 51.9264C103.274 52.0752 103.391 52.2187 103.479 52.3571C103.569 52.493 103.619 52.622 103.629 52.744C103.637 52.8638 103.593 52.974 103.498 53.0743C103.471 53.103 103.441 53.1307 103.406 53.1575C103.374 53.1819 103.338 53.2077 103.299 53.2347ZM106.829 49.4968L106.371 49.1262L106.286 49.0763L105.521 48.4566C105.344 48.3139 105.166 48.2496 104.986 48.2638C104.808 48.2755 104.636 48.3698 104.469 48.5466C104.354 48.6685 104.267 48.8024 104.208 48.9486C104.149 49.0947 104.121 49.2358 104.122 49.3719L103.805 49.3172C103.806 49.1493 103.845 48.9792 103.924 48.8071C104 48.6328 104.108 48.4716 104.248 48.3235C104.478 48.0797 104.721 47.9465 104.98 47.9237C105.237 47.8963 105.501 47.9924 105.772 48.2117L107.059 49.253L106.829 49.4968ZM106.237 50.1614C106.104 50.3024 105.963 50.4052 105.814 50.4699C105.665 50.5301 105.519 50.5514 105.378 50.534C105.234 50.5144 105.103 50.4567 104.985 50.3609C104.877 50.2735 104.801 50.1721 104.757 50.0564C104.713 49.9362 104.714 49.8022 104.76 49.6545C104.806 49.5023 104.914 49.3365 105.083 49.1573L105.694 48.5086L105.903 48.6779L105.299 49.3195C105.127 49.5011 105.044 49.6564 105.047 49.7856C105.053 49.9124 105.108 50.0184 105.213 50.1036C105.332 50.1994 105.466 50.2343 105.616 50.2081C105.766 50.182 105.911 50.0937 106.053 49.9431C106.188 49.7998 106.269 49.648 106.295 49.4877C106.32 49.323 106.287 49.1613 106.195 49.0028L106.443 49.102C106.534 49.2605 106.565 49.4325 106.534 49.618C106.505 49.8011 106.406 49.9822 106.237 50.1614ZM107.663 48.6115L105.592 46.9345L105.832 46.68L106.747 47.4211L107.865 46.2347L106.95 45.4937L107.19 45.2392L109.261 46.9162L109.021 47.1707L108.106 46.4296L106.988 47.6159L107.903 48.357L107.663 48.6115ZM110.247 45.8704L108.345 44.3307L108.481 44.3269L107.748 45.1046L107.503 44.9066L109.088 43.2256L109.333 43.4237L108.599 44.2014L108.585 44.0762L110.487 45.6159L110.247 45.8704ZM113.202 42.7355L111.131 41.0585L111.371 40.8041L113.442 42.4811L113.202 42.7355ZM110.877 42.6924C111.103 42.458 111.331 42.3245 111.561 42.2918C111.791 42.2591 112.013 42.329 112.226 42.5015C112.447 42.6804 112.554 42.8847 112.546 43.1143C112.538 43.3439 112.416 43.5819 112.179 43.8283L111.472 44.5706L109.401 42.8936L109.641 42.6391L110.363 43.2237L110.877 42.6924ZM111.949 43.6737C112.118 43.499 112.205 43.3355 112.21 43.1833C112.214 43.0264 112.138 42.8852 111.983 42.7596C111.828 42.6339 111.673 42.5866 111.519 42.6175C111.362 42.6462 111.197 42.7492 111.026 42.9262L110.572 43.393L111.495 44.1404L111.949 43.6737Z" fill="black"/>
<path d="M78.2729 87.2485C78.0488 84.0006 80.5267 81.2101 83.8074 81.0157L114.708 79.1845C117.989 78.9901 120.83 81.4654 121.054 84.7132C121.278 87.9611 118.8 90.7516 115.52 90.946L84.6189 92.7772C81.3382 92.9716 78.497 90.4963 78.2729 87.2485Z" fill="#CCFFB8"/>
<path d="M84.4853 88.4873L84.2456 85.0132L87.1983 84.8382L87.438 88.3123L87.0721 88.334L86.8474 85.0783L86.9495 85.1719L84.5382 85.3148L84.6266 85.2099L84.8512 88.4656L84.4853 88.4873ZM89.847 88.1945C89.6198 88.2079 89.4107 88.1688 89.2198 88.0771C89.0287 87.9822 88.8712 87.8403 88.7475 87.6517C88.6268 87.4595 88.5567 87.2211 88.5371 86.9366C88.5174 86.652 88.5544 86.409 88.6478 86.2074C88.7411 86.0026 88.8761 85.8434 89.0528 85.7299C89.2296 85.6165 89.4332 85.5529 89.6638 85.5392C89.9145 85.5244 90.1423 85.5674 90.3472 85.6682C90.5553 85.7655 90.7231 85.9117 90.8507 86.1068C90.978 86.2986 91.0507 86.5251 91.0687 86.7865C91.087 87.0512 91.0461 87.2862 90.9462 87.4915C90.8463 87.6967 90.6999 87.8615 90.5072 87.9859C90.3177 88.1101 90.0977 88.1796 89.847 88.1945ZM88.5532 89.213L88.307 85.6446L88.6479 85.6244L88.702 86.4085L88.7028 86.9317L88.7893 87.4548L88.9091 89.1919L88.5532 89.213ZM89.8004 87.8833C89.9876 87.8722 90.1518 87.8209 90.2932 87.7295C90.4343 87.6347 90.543 87.5087 90.6194 87.3514C90.6956 87.1907 90.7267 87.0095 90.7128 86.8076C90.6989 86.6058 90.6432 86.4314 90.5458 86.2843C90.4484 86.1373 90.3232 86.0251 90.1702 85.9478C90.0172 85.8705 89.8472 85.8373 89.66 85.8484C89.4728 85.8595 89.307 85.9125 89.1626 86.0075C89.0215 86.1022 88.9127 86.2283 88.8363 86.3856C88.7633 86.5428 88.7337 86.7223 88.7476 86.9241C88.7615 87.1259 88.8156 87.3021 88.9099 87.4527C89.0073 87.5997 89.1325 87.7119 89.2855 87.7892C89.4416 87.863 89.6132 87.8944 89.8004 87.8833ZM92.9579 88.0101C92.7039 88.0252 92.4711 87.9825 92.2595 87.8821C92.051 87.7781 91.8814 87.6304 91.7507 87.4388C91.6198 87.2439 91.5455 87.0174 91.5277 86.7593C91.5096 86.498 91.5522 86.2645 91.6555 86.0591C91.7588 85.8536 91.9068 85.6887 92.0996 85.5643C92.2923 85.44 92.5174 85.3701 92.7747 85.3549C93.0354 85.3394 93.2699 85.382 93.4782 85.4826C93.6898 85.5831 93.8593 85.7292 93.9866 85.9209C94.1173 86.1125 94.1917 86.339 94.2097 86.6004C94.2275 86.8585 94.1849 87.0919 94.0818 87.3007C93.9819 87.5059 93.834 87.6725 93.6381 87.8004C93.442 87.9249 93.2153 87.9949 92.9579 88.0101ZM92.9364 87.6974C93.1269 87.6861 93.2928 87.6348 93.4341 87.5434C93.5753 87.4486 93.6823 87.3227 93.7554 87.1655C93.8316 87.0049 93.8627 86.8236 93.8488 86.6218C93.8346 86.4166 93.7788 86.2406 93.6814 86.0935C93.5874 85.9463 93.464 85.8356 93.3112 85.7616C93.1582 85.6843 92.9881 85.6512 92.801 85.6623C92.6138 85.6734 92.4497 85.7263 92.3086 85.821C92.1672 85.9125 92.0584 86.0369 91.982 86.1942C91.9056 86.3516 91.8745 86.5328 91.8886 86.7379C91.9025 86.9398 91.9583 87.1159 92.0559 87.2662C92.1533 87.4133 92.2785 87.5255 92.4315 87.6028C92.5843 87.6768 92.7526 87.7083 92.9364 87.6974ZM95.0103 87.8636L94.8306 85.258L96.6955 85.1475L96.7167 85.4552L95.1175 85.5499L95.2016 85.4553L95.3663 87.8425L95.0103 87.8636ZM98.6998 87.6698C98.4725 87.6833 98.2635 87.6442 98.0726 87.5525C97.8814 87.4575 97.724 87.3157 97.6002 87.127C97.4796 86.9349 97.4095 86.6965 97.3898 86.4119C97.3702 86.1274 97.4071 85.8843 97.5006 85.6828C97.5938 85.4779 97.7288 85.3188 97.9056 85.2053C98.0823 85.0919 98.286 85.0283 98.5166 85.0146C98.7673 84.9998 98.9951 85.0428 99.2 85.1436C99.4081 85.2409 99.5759 85.3871 99.7034 85.5822C99.8308 85.7739 99.9034 86.0005 99.9215 86.2619C99.9397 86.5266 99.8989 86.7616 99.799 86.9668C99.699 87.1721 99.5527 87.3369 99.3599 87.4613C99.1705 87.5855 98.9505 87.655 98.6998 87.6698ZM97.4059 88.6884L97.1597 85.12L97.5006 85.0998L97.5547 85.8839L97.5556 86.4071L97.642 86.9302L97.7619 88.6673L97.4059 88.6884ZM98.6532 87.3587C98.8403 87.3476 99.0046 87.2963 99.1459 87.2049C99.287 87.1101 99.3958 86.9841 99.4722 86.8267C99.5483 86.6661 99.5795 86.4848 99.5655 86.283C99.5516 86.0812 99.496 85.9067 99.3986 85.7597C99.3012 85.6126 99.176 85.5005 99.023 85.4232C98.87 85.3458 98.6999 85.3127 98.5128 85.3238C98.3256 85.3349 98.1598 85.3879 98.0153 85.4829C97.8742 85.5776 97.7655 85.7036 97.6891 85.861C97.616 86.0181 97.5865 86.1976 97.6004 86.3995C97.6143 86.6013 97.6684 86.7775 97.7627 86.928C97.8601 87.0751 97.9853 87.1873 98.1383 87.2646C98.2944 87.3384 98.466 87.3697 98.6532 87.3587ZM102.346 87.4289L102.306 86.8532L102.284 86.7597L102.218 85.7969C102.203 85.5752 102.128 85.4086 101.992 85.297C101.86 85.1852 101.671 85.1367 101.423 85.1513C101.253 85.1614 101.093 85.1992 100.943 85.2645C100.793 85.3299 100.668 85.412 100.567 85.511L100.389 85.2575C100.515 85.1371 100.669 85.0415 100.852 84.9709C101.035 84.8969 101.23 84.8538 101.437 84.8415C101.778 84.8213 102.046 84.8902 102.242 85.048C102.44 85.2024 102.552 85.4499 102.575 85.7907L102.687 87.4087L102.346 87.4289ZM101.44 87.5074C101.243 87.5191 101.069 87.4979 100.917 87.4438C100.769 87.3861 100.652 87.3033 100.568 87.1954C100.483 87.0841 100.435 86.954 100.425 86.8051C100.416 86.6695 100.439 86.5452 100.495 86.4322C100.554 86.3158 100.655 86.2201 100.797 86.1452C100.943 86.0668 101.141 86.0202 101.392 86.0054L102.299 85.9516L102.317 86.2146L101.42 86.2678C101.166 86.2828 100.992 86.338 100.898 86.4333C100.807 86.5284 100.766 86.6421 100.775 86.7744C100.786 86.9233 100.852 87.039 100.976 87.1214C101.099 87.2038 101.266 87.2387 101.476 87.2263C101.677 87.2144 101.846 87.1595 101.983 87.0617C102.124 86.9603 102.222 86.8216 102.277 86.6456L102.374 86.884C102.319 87.06 102.211 87.2043 102.051 87.3168C101.894 87.429 101.691 87.4926 101.44 87.5074ZM103.584 87.3555L103.404 84.7499L103.765 84.7285L105.096 86.6579L104.946 86.6668L106.021 84.5948L106.352 84.5752L106.532 87.1808L106.206 87.2001L106.054 84.9965L106.121 85.0224L105.116 86.9458L104.956 86.9553L103.683 85.147L103.758 85.1276L103.91 87.3362L103.584 87.3555ZM107.495 87.1237L107.315 84.5182L107.676 84.4968L109.007 86.4262L108.856 86.4351L109.932 84.3631L110.262 84.3435L110.442 86.9491L110.116 86.9684L109.964 84.7648L110.032 84.7907L109.027 86.714L108.866 86.7235L107.594 84.9152L107.668 84.8959L107.82 87.1044L107.495 87.1237ZM113.972 86.7399L113.792 84.1343L114.148 84.1132L114.328 86.7188L113.972 86.7399ZM112.396 85.1389C112.728 85.1226 112.985 85.1805 113.169 85.3124C113.352 85.4444 113.453 85.6444 113.472 85.9124C113.491 86.1903 113.412 86.4093 113.235 86.5693C113.058 86.7293 112.796 86.8179 112.448 86.8352L111.405 86.892L111.225 84.2864L111.581 84.2653L111.644 85.1736L112.396 85.1389ZM112.405 86.5687C112.652 86.5573 112.834 86.4983 112.951 86.3918C113.071 86.2817 113.124 86.129 113.111 85.9338C113.097 85.7386 113.026 85.6 112.896 85.518C112.766 85.4327 112.575 85.3958 112.324 85.4073L111.662 85.4366L111.742 86.5979L112.405 86.5687Z" fill="black"/>
<path d="M10.7643 50.4922C8.94018 48.6781 8.99665 45.8816 10.8904 44.2461L27.3289 30.0496C29.2227 28.4141 32.2366 28.559 34.0608 30.3731C35.8849 32.1873 35.8284 34.9838 33.9346 36.6193L17.4962 50.8157C15.6024 52.4512 12.5884 52.3064 10.7643 50.4922Z" fill="#90FF8A"/>
<path d="M14.5743 46.7609L14.351 46.5464L15.7723 45.2753L15.9957 45.4898L14.5743 46.7609ZM13.5062 45.1357C13.6898 44.9714 13.8917 44.852 14.1118 44.7773C14.3296 44.7003 14.5546 44.6666 14.7868 44.6762C15.0215 44.6836 15.25 44.7351 15.4723 44.8305C15.6946 44.926 15.8998 45.0639 16.0877 45.2444C16.2757 45.4249 16.4172 45.6198 16.5122 45.8292C16.6072 46.0385 16.6545 46.2519 16.6541 46.4696C16.6562 46.685 16.6131 46.8933 16.5248 47.0946C16.434 47.2935 16.2968 47.4751 16.1131 47.6393C15.9172 47.8145 15.7031 47.9471 15.4707 48.0373C15.2383 48.1274 15.0035 48.1631 14.7664 48.1443L14.7632 47.8279C14.9808 47.837 15.1801 47.8059 15.3612 47.7346C15.5398 47.6609 15.7062 47.555 15.8604 47.4171C16.0049 47.2879 16.1115 47.1428 16.1802 46.9817C16.2514 46.8184 16.2847 46.6506 16.2801 46.4781C16.2779 46.3035 16.2391 46.1323 16.1636 45.9644C16.0856 45.7941 15.9697 45.6352 15.816 45.4875C15.6622 45.3398 15.4961 45.228 15.3178 45.1521C15.137 45.0738 14.9525 45.0306 14.7642 45.0224C14.5784 45.012 14.3962 45.0368 14.2177 45.0969C14.0415 45.1549 13.8813 45.2484 13.7368 45.3776C13.5825 45.5156 13.4637 45.6671 13.3803 45.8322C13.2969 45.9974 13.2551 46.1797 13.2547 46.3792L12.9137 46.365C12.9018 46.1447 12.9486 45.9286 13.0541 45.7165C13.1596 45.5045 13.3103 45.3109 13.5062 45.1357ZM17.9204 45.9823L15.9981 44.1362L16.2589 43.903L17.1083 44.7188L18.324 43.6316L17.4745 42.8158L17.7353 42.5826L19.6576 44.4286L19.3968 44.6618L18.5473 43.8461L17.3317 44.9333L18.1811 45.7491L17.9204 45.9823ZM21.2067 43.0772C21.0059 43.2567 20.7881 43.3745 20.5533 43.4306C20.3161 43.4843 20.0814 43.4792 19.8492 43.4152C19.6146 43.3488 19.4021 43.2242 19.2117 43.0413C19.0213 42.8585 18.8933 42.6606 18.8276 42.4477C18.7644 42.2326 18.7623 42.0217 18.8214 41.815C18.8804 41.6037 18.9993 41.4182 19.178 41.2583C19.3592 41.0963 19.5611 40.9927 19.7836 40.9476C20.0062 40.898 20.2323 40.9085 20.462 40.9792C20.6893 41.0476 20.8993 41.1744 21.0922 41.3596C21.1044 41.3713 21.1166 41.3853 21.1288 41.4016C21.141 41.4133 21.1544 41.4262 21.169 41.4403L19.4906 42.9413L19.2965 42.755L20.8354 41.3787L20.8095 41.5445C20.6703 41.4109 20.5165 41.3199 20.3478 41.2715C20.1792 41.2186 20.013 41.2088 19.8491 41.2421C19.6853 41.2755 19.536 41.3524 19.4013 41.4728C19.2691 41.5911 19.1809 41.7266 19.1366 41.8793C19.0924 42.0321 19.0958 42.1875 19.1469 42.3456C19.1979 42.5036 19.2943 42.6506 19.4358 42.7866L19.4761 42.8253C19.6226 42.9659 19.7838 43.0617 19.9597 43.1126C20.1357 43.159 20.3129 43.1612 20.4915 43.1192C20.67 43.0727 20.834 42.9826 20.9833 42.8491C21.1009 42.744 21.1891 42.6266 21.248 42.497C21.3093 42.3651 21.334 42.2254 21.322 42.0776L21.6373 42.108C21.6542 42.2831 21.6245 42.4544 21.5485 42.6221C21.4749 42.7875 21.3609 42.9392 21.2067 43.0772ZM23.6092 40.9285C23.4427 41.0774 23.2543 41.1757 23.044 41.2235C22.8312 41.2689 22.6124 41.2586 22.3876 41.1925C22.1628 41.122 21.9454 40.9859 21.7355 40.7843C21.5256 40.5827 21.3878 40.3777 21.3221 40.1693C21.254 39.9586 21.2494 39.7566 21.3084 39.5635C21.3674 39.3704 21.4814 39.1983 21.6503 39.0472C21.834 38.883 22.0395 38.7761 22.267 38.7266C22.4944 38.6726 22.7242 38.6799 22.9564 38.7484C23.1861 38.8146 23.3974 38.9403 23.5902 39.1255C23.7855 39.3131 23.9147 39.5144 23.9779 39.7295C24.0411 39.9446 24.0408 40.1577 23.9769 40.3688C23.9154 40.5777 23.7929 40.7642 23.6092 40.9285ZM23.3059 42.4832L20.6733 39.955L20.9231 39.7316L21.5016 40.2872L21.8603 40.6794L22.2852 41.0193L23.5667 42.25L23.3059 42.4832ZM23.3602 40.7234C23.4973 40.6007 23.5892 40.4619 23.6359 40.307C23.6802 40.1497 23.678 39.9887 23.6294 39.8239C23.5783 39.6568 23.4783 39.5017 23.3294 39.3587C23.1805 39.2157 23.0181 39.1188 22.8422 39.0679C22.6662 39.017 22.4927 39.0092 22.3215 39.0446C22.1503 39.08 21.9961 39.159 21.859 39.2817C21.7219 39.4043 21.63 39.5454 21.5832 39.7048C21.539 39.8621 21.5411 40.0232 21.5898 40.1879C21.6408 40.3505 21.7408 40.5033 21.8897 40.6463C22.0386 40.7893 22.2011 40.8885 22.377 40.944C22.5529 40.9949 22.7265 41.0026 22.8977 40.9672C23.0689 40.9273 23.2231 40.846 23.3602 40.7234ZM25.0767 39.5821L23.1544 37.736L24.5207 36.5141L24.7477 36.7321L23.5761 37.7799L23.5763 37.6575L25.3375 39.3489L25.0767 39.5821ZM26.7831 38.056L24.8608 36.2099L25.1216 35.9767L26.6484 37.443L26.4107 34.8238L26.6421 34.6169L28.5643 36.463L28.3036 36.6962L26.7731 35.2264L27.0181 37.8458L26.7831 38.056ZM30.52 34.714L29.828 34.0494L29.9306 34.0594L29.2769 34.6441C29.0296 34.8653 28.7825 34.9867 28.5355 35.0084C28.2885 35.03 28.0625 34.9424 27.8575 34.7455C27.6378 34.5345 27.5489 34.3107 27.5909 34.0739C27.6304 33.8349 27.775 33.6037 28.0248 33.3803L28.8364 32.6544L30.7587 34.5005L30.52 34.714ZM29.1097 35.9753L28.8989 34.792L29.1707 34.5489L29.3924 35.7224L29.1097 35.9753ZM29.7511 33.9755L28.7478 33.0121L28.8725 33.0432L28.2591 33.5917C28.0804 33.7516 27.975 33.9092 27.9429 34.0647C27.9134 34.2179 27.9754 34.3683 28.1292 34.516C28.4148 34.7903 28.74 34.7643 29.1049 34.438L29.7366 33.8731L29.7511 33.9755Z" fill="black"/>
<path d="M70.3128 13.5132C71.9714 11.5674 75.041 11.2528 77.169 12.8107L94.4506 25.4622C96.5786 27.0201 96.9592 29.8604 95.3006 31.8063C93.642 33.7521 90.5724 34.0667 88.4444 32.5088L71.1628 19.8573C69.0348 18.2994 68.6542 15.4591 70.3128 13.5132Z" fill="#97B6FF"/>
<path d="M74.1377 18.1006L76.3731 15.4779L78.4709 17.0137L78.2697 17.2497L76.471 15.9329L75.7397 16.7909L76.678 17.4778C77.0167 17.7258 77.2192 17.9774 77.2854 18.2328C77.3565 18.4877 77.2878 18.7375 77.0791 18.9823C76.8641 19.2346 76.6035 19.3581 76.2973 19.353C75.9939 19.3499 75.6646 19.2184 75.3095 18.9584L74.1377 18.1006ZM74.6252 18.0985L75.4938 18.7344C75.7588 18.9284 75.9976 19.0281 76.2102 19.0337C76.4277 19.0388 76.6131 18.9514 76.7663 18.7716C77.0708 18.4144 76.9553 18.0398 76.4199 17.6479L75.5513 17.012L74.6252 18.0985ZM78.3357 21.1739L78.7062 20.7393L78.7546 20.6591L79.3741 19.9322C79.5167 19.7649 79.5745 19.5983 79.5473 19.4324C79.5229 19.2685 79.4096 19.1125 79.2075 18.9645C79.0682 18.8625 78.9176 18.7868 78.7558 18.7373C78.5939 18.6877 78.4395 18.6659 78.2925 18.6719L78.3306 18.3773C78.5122 18.3724 78.6987 18.4034 78.89 18.4705C79.0834 18.535 79.2648 18.6293 79.4342 18.7532C79.7128 18.9572 79.8729 19.1779 79.9146 19.4152C79.9611 19.6521 79.8747 19.8992 79.6554 20.1565L78.6144 21.3778L78.3357 21.1739ZM77.5782 20.6497C77.417 20.5317 77.2965 20.405 77.2168 20.2695C77.1419 20.1336 77.1093 20.0002 77.1188 19.8693C77.1305 19.7358 77.1843 19.6129 77.2801 19.5005C77.3674 19.3981 77.4721 19.3247 77.5942 19.2803C77.7213 19.2354 77.8661 19.2319 78.0289 19.2699C78.1965 19.3075 78.3828 19.4012 78.5877 19.5512L79.3293 20.0941L79.16 20.2927L78.4266 19.7558C78.219 19.6038 78.0455 19.5315 77.9061 19.539C77.7694 19.5484 77.6584 19.6031 77.5733 19.703C77.4775 19.8154 77.4486 19.9403 77.4868 20.0778C77.5249 20.2152 77.63 20.3469 77.8021 20.4729C77.966 20.5929 78.1354 20.6621 78.3103 20.6807C78.4901 20.6987 78.6627 20.6628 78.828 20.5729L78.7371 20.8045C78.5718 20.8944 78.3878 20.928 78.1852 20.9055C77.9854 20.8849 77.783 20.7997 77.5782 20.6497ZM78.9577 21.6231L79.173 21.4095C79.1899 21.426 79.2045 21.4428 79.2166 21.4598C79.2336 21.4763 79.249 21.4895 79.2626 21.4995C79.35 21.5635 79.4452 21.5845 79.5482 21.5626C79.6539 21.5426 79.763 21.4927 79.8755 21.4128C79.988 21.3329 80.1029 21.2345 80.2203 21.1176C80.3398 20.9982 80.4579 20.8778 80.5747 20.7564L81.2088 20.0828L82.7862 21.2376L81.1097 23.2046L80.8188 22.9916L82.3644 21.1783L82.3711 21.311L81.1992 20.4531L81.3392 20.4216L80.821 20.9671C80.668 21.131 80.5146 21.2823 80.3608 21.4212C80.2096 21.5621 80.0622 21.6752 79.9184 21.7606C79.7774 21.848 79.6413 21.8984 79.51 21.9119C79.3809 21.9228 79.259 21.8863 79.1443 21.8023C79.1115 21.7783 79.0795 21.7508 79.0482 21.7198C79.0197 21.6908 78.9895 21.6586 78.9577 21.6231ZM83.2314 24.7579L83.6019 24.3233L83.6502 24.2431L84.2698 23.5163C84.4124 23.3489 84.4702 23.1823 84.443 23.0164C84.4186 22.8525 84.3053 22.6965 84.1032 22.5485C83.9638 22.4466 83.8133 22.3708 83.6514 22.3213C83.4896 22.2718 83.3352 22.25 83.1881 22.2559L83.2263 21.9614C83.4079 21.9564 83.5944 21.9875 83.7857 22.0545C83.9791 22.119 84.1605 22.2133 84.3298 22.3373C84.6085 22.5412 84.7686 22.7619 84.8102 22.9993C84.8568 23.2361 84.7704 23.4832 84.5511 23.7405L83.51 24.9619L83.2314 24.7579ZM82.4738 24.2337C82.3127 24.1157 82.1922 23.989 82.1125 23.8536C82.0376 23.7176 82.0049 23.5842 82.0145 23.4533C82.0262 23.3199 82.0799 23.197 82.1757 23.0846C82.263 22.9821 82.3678 22.9087 82.4899 22.8643C82.6169 22.8194 82.7618 22.8159 82.9246 22.854C83.0922 22.8915 83.2785 22.9852 83.4833 23.1352L84.2249 23.6781L84.0557 23.8767L83.3223 23.3398C83.1147 23.1878 82.9412 23.1155 82.8017 23.123C82.665 23.1324 82.5541 23.1871 82.4689 23.287C82.3731 23.3994 82.3443 23.5243 82.3824 23.6618C82.4205 23.7992 82.5256 23.9309 82.6977 24.0569C82.8616 24.1769 83.031 24.2461 83.206 24.2647C83.3858 24.2827 83.5583 24.2468 83.7237 24.1569L83.6328 24.3885C83.4674 24.4784 83.2835 24.5121 83.0809 24.4895C82.881 24.469 82.6787 24.3837 82.4738 24.2337ZM84.2435 25.4988L85.9201 23.5318L86.211 23.7448L85.4701 24.614L86.8263 25.6069L87.5672 24.7377L87.8581 24.9506L86.1815 26.9176L85.8906 26.7046L86.6315 25.8354L85.2753 24.8426L84.5344 25.7118L84.2435 25.4988ZM87.8529 28.1716C87.6398 28.0156 87.4848 27.8332 87.3878 27.6243C87.2957 27.4148 87.2657 27.2002 87.2978 26.9804C87.3321 26.758 87.4323 26.5494 87.5983 26.3546C87.7665 26.1573 87.9623 26.0187 88.1856 25.9388C88.409 25.8589 88.6401 25.8375 88.8791 25.8746C89.1209 25.9136 89.3483 26.0112 89.5614 26.1671C89.7444 26.3011 89.8819 26.4546 89.9741 26.6275C90.0663 26.8004 90.0993 26.9828 90.0733 27.1747L89.7412 27.1506C89.7526 26.9967 89.7239 26.856 89.6551 26.7286C89.5862 26.6011 89.4876 26.4904 89.3593 26.3964C89.2063 26.2844 89.0407 26.2159 88.8624 26.1909C88.6863 26.1633 88.5137 26.181 88.3448 26.2439C88.1758 26.3068 88.0253 26.4157 87.8933 26.5706C87.7613 26.7254 87.6819 26.8863 87.655 27.0532C87.6281 27.2201 87.6484 27.381 87.7159 27.5359C87.7856 27.6883 87.897 27.8206 88.0499 27.9325C88.1783 28.0265 88.3174 28.0898 88.4671 28.1223C88.6168 28.1548 88.77 28.1494 88.9268 28.106L89.029 28.3998C88.8358 28.4652 88.6366 28.4777 88.4317 28.4371C88.2288 28.3941 88.0359 28.3056 87.8529 28.1716Z" fill="black"/>
<rect width="29.3489" height="10.7057" rx="5.35286" transform="matrix(1.00472 0.128509 -0.145183 0.974906 88.2656 93.5793)" fill="#FCEE72"/>
<path d="M95.4471 101.412C95.1825 101.378 94.9443 101.305 94.7325 101.192C94.5212 101.075 94.3451 100.928 94.2042 100.751C94.0634 100.574 93.9618 100.374 93.8994 100.151C93.8405 99.9283 93.8296 99.6918 93.8669 99.4416C93.9042 99.1914 93.9837 98.9664 94.1056 98.7668C94.2308 98.5675 94.3871 98.4004 94.5745 98.2654C94.7651 98.1309 94.979 98.0357 95.2159 97.9799C95.4534 97.9209 95.7044 97.9083 95.969 97.9421C96.2235 97.9746 96.4567 98.0475 96.6685 98.1607C96.8808 98.2707 97.0516 98.4183 97.181 98.6038L96.9108 98.8027C96.788 98.6413 96.6442 98.5186 96.4792 98.4346C96.3148 98.3473 96.1321 98.2908 95.9311 98.2651C95.7201 98.2381 95.5189 98.2488 95.3274 98.2972C95.1364 98.3423 94.9642 98.4213 94.8109 98.5341C94.658 98.6437 94.5303 98.7797 94.4276 98.9421C94.3288 99.1016 94.2641 99.2838 94.2336 99.4885C94.2031 99.6932 94.2119 99.8864 94.2599 100.068C94.3118 100.247 94.395 100.41 94.5096 100.557C94.6247 100.701 94.7674 100.82 94.9376 100.915C95.1083 101.006 95.2991 101.065 95.5101 101.092C95.711 101.118 95.9034 101.11 96.0872 101.067C96.2711 101.024 96.4456 100.94 96.6109 100.816L96.8129 101.075C96.6342 101.221 96.4263 101.322 96.1894 101.378C95.9524 101.434 95.705 101.445 95.4471 101.412ZM97.8034 101.684L98.1533 99.3342L98.2299 99.4383L97.1398 99.2989L97.1848 98.9967L99.5409 99.298L99.4958 99.6003L98.4057 99.4608L98.5099 99.3798L98.16 101.729L97.8034 101.684ZM100.983 102.115C100.755 102.086 100.557 102.009 100.388 101.885C100.219 101.758 100.094 101.591 100.012 101.385C99.9334 101.176 99.9152 100.932 99.9568 100.653C99.9984 100.373 100.087 100.144 100.223 99.9665C100.359 99.7852 100.527 99.656 100.726 99.5788C100.925 99.5016 101.14 99.4778 101.371 99.5073C101.623 99.5395 101.839 99.6234 102.02 99.7592C102.205 99.8921 102.339 100.065 102.424 100.278C102.509 100.487 102.532 100.72 102.494 100.977C102.455 101.237 102.364 101.457 102.221 101.638C102.078 101.818 101.898 101.951 101.681 102.036C101.467 102.121 101.234 102.147 100.983 102.115ZM99.4844 102.862L100.006 99.3576L100.348 99.4013L100.233 100.171L100.122 100.679L100.095 101.202L99.8411 102.908L99.4844 102.862ZM101.004 101.805C101.191 101.829 101.365 101.81 101.524 101.747C101.684 101.682 101.819 101.58 101.928 101.441C102.038 101.3 102.108 101.13 102.137 100.932C102.167 100.733 102.149 100.554 102.084 100.393C102.019 100.233 101.919 100.101 101.785 99.9973C101.65 99.894 101.489 99.8303 101.301 99.8063C101.114 99.7824 100.938 99.803 100.775 99.8682C100.615 99.9338 100.48 100.036 100.371 100.174C100.265 100.313 100.197 100.481 100.168 100.68C100.138 100.878 100.154 101.059 100.215 101.222C100.28 101.383 100.38 101.515 100.514 101.618C100.653 101.719 100.816 101.781 101.004 101.805ZM104.642 102.558L104.726 101.993L104.725 101.898L104.866 100.953C104.898 100.735 104.859 100.559 104.75 100.426C104.643 100.293 104.466 100.211 104.218 100.179C104.047 100.158 103.881 100.164 103.718 100.2C103.556 100.236 103.415 100.292 103.294 100.369L103.172 100.09C103.322 99.9969 103.495 99.933 103.692 99.8985C103.888 99.8607 104.091 99.8551 104.298 99.8817C104.64 99.9254 104.89 100.042 105.05 100.231C105.213 100.418 105.27 100.678 105.22 101.013L104.983 102.602L104.642 102.558ZM103.729 102.466C103.531 102.441 103.363 102.388 103.225 102.308C103.091 102.224 102.994 102.122 102.933 102.002C102.873 101.878 102.854 101.744 102.876 101.597C102.895 101.464 102.945 101.348 103.025 101.249C103.108 101.147 103.228 101.073 103.385 101.027C103.546 100.978 103.752 100.969 104.003 101.001L104.913 101.118L104.874 101.376L103.975 101.261C103.721 101.228 103.536 101.25 103.423 101.325C103.313 101.4 103.248 101.503 103.229 101.632C103.207 101.779 103.248 101.903 103.352 102.006C103.456 102.109 103.614 102.174 103.825 102.201C104.026 102.226 104.205 102.204 104.362 102.135C104.523 102.063 104.649 101.947 104.742 101.786L104.786 102.035C104.694 102.196 104.557 102.316 104.374 102.395C104.195 102.475 103.98 102.499 103.729 102.466ZM105.451 102.662L106.775 101.401L106.745 101.571L105.882 100.109L106.284 100.161L106.99 101.368L106.84 101.344L107.871 100.364L108.263 100.414L106.994 101.617L107.026 101.433L107.942 102.981L107.536 102.928L106.79 101.641L106.928 101.678L105.853 102.713L105.451 102.662ZM108.477 103.049L108.858 100.49L109.215 100.535L108.912 102.568L110.978 100.761L111.294 100.801L110.913 103.361L110.557 103.315L110.86 101.277L108.798 103.09L108.477 103.049Z" fill="black"/>
<rect width="32.0038" height="11.2644" rx="5.63221" transform="matrix(0.957984 0.376544 -0.40372 0.882182 61.8945 43.8683)" fill="#C8C8C8"/>
<path d="M65.9163 52.7538L65.2845 50.7201L65.6434 50.6669L66.327 52.9055L65.9163 52.7538ZM63.6016 51.8989L64.9417 48.7828L65.2896 48.9113L63.9495 52.0274L63.6016 51.8989ZM64.4578 50.5592L64.5822 50.2698L65.6405 50.6607L65.516 50.9501L64.4578 50.5592ZM65.5901 50.8691L65.2844 50.6943L67.208 49.6199L67.5946 49.7627L65.5901 50.8691ZM68.1169 53.5925C67.8979 53.5115 67.7195 53.3924 67.5819 53.2349C67.4456 53.0745 67.3619 52.8871 67.3309 52.6728C67.3044 52.4566 67.346 52.2209 67.4557 51.9657C67.5655 51.7105 67.7096 51.5144 67.888 51.3774C68.0676 51.2374 68.2658 51.1541 68.4826 51.1276C68.6993 51.101 68.9189 51.1288 69.1411 51.2109C69.3828 51.3001 69.5769 51.4303 69.7236 51.6014C69.8748 51.7707 69.9662 51.9661 69.9979 52.1876C70.0308 52.4062 69.9969 52.6326 69.8961 52.8671C69.794 53.1045 69.6499 53.292 69.4638 53.4296C69.2776 53.5672 69.0662 53.6508 68.8296 53.6803C68.5961 53.711 68.3586 53.6817 68.1169 53.5925ZM66.4456 53.9501L67.822 50.7494L68.1506 50.8708L67.8481 51.5742L67.6133 52.0291L67.4587 52.5188L66.7887 54.0768L66.4456 53.9501ZM68.2134 53.3031C68.3938 53.3697 68.5708 53.3921 68.7445 53.3703C68.9194 53.3455 69.0781 53.2803 69.2206 53.1747C69.3643 53.0662 69.4751 52.9214 69.553 52.7404C69.6308 52.5593 69.6572 52.3851 69.6322 52.2176C69.6071 52.0502 69.5403 51.9017 69.4317 51.7722C69.3232 51.6427 69.1787 51.5446 68.9983 51.478C68.8179 51.4113 68.6386 51.3898 68.4605 51.4134C68.2855 51.4382 68.1268 51.5034 67.9844 51.609C67.8451 51.7158 67.7366 51.8597 67.6587 52.0407C67.5809 52.2217 67.5522 52.3968 67.5728 52.5661C67.5978 52.7335 67.6646 52.882 67.7732 53.0115C67.8862 53.1393 68.033 53.2365 68.2134 53.3031ZM70.0814 54.2923L71.0865 51.9552L71.4296 52.0819L70.6313 53.9382L73.1257 52.7084L73.4301 52.8209L72.4251 55.1579L72.082 55.0312L72.8822 53.1705L70.3907 54.4065L70.0814 54.2923ZM73.978 55.7625C73.7944 55.6947 73.6225 55.6037 73.4626 55.4896C73.3026 55.3754 73.1744 55.2438 73.078 55.0947L73.2906 54.8999C73.3773 55.0282 73.4916 55.1443 73.6335 55.2483C73.7767 55.3494 73.9272 55.4291 74.0851 55.4874C74.2442 55.5427 74.3901 55.5725 74.5226 55.5768C74.6552 55.581 74.7684 55.5609 74.8622 55.5165C74.956 55.472 75.0214 55.4067 75.0584 55.3207C75.112 55.196 75.0922 55.077 74.9992 54.9635C74.9074 54.8471 74.7552 54.7496 74.5426 54.671L74.1077 54.5104L74.2072 54.2789L74.6179 54.4306C74.7436 54.477 74.8611 54.5033 74.9705 54.5093C75.0799 54.5153 75.1725 54.4996 75.2483 54.4623C75.3273 54.4261 75.3834 54.3695 75.4166 54.2923C75.4524 54.2092 75.4508 54.1261 75.4119 54.0429C75.3762 53.961 75.31 53.8849 75.2132 53.8148C75.1164 53.7447 74.9988 53.684 74.8602 53.6328C74.7333 53.5894 74.5952 53.559 74.4459 53.5417C74.2978 53.5214 74.1443 53.518 73.9854 53.5315L73.9941 53.251C74.1729 53.2345 74.3424 53.2352 74.5027 53.2532C74.6675 53.2693 74.824 53.3048 74.9722 53.3595C75.1777 53.4285 75.3501 53.518 75.4895 53.628C75.6321 53.7391 75.7313 53.86 75.7871 53.9907C75.8442 54.1184 75.8447 54.2475 75.7885 54.3781C75.7388 54.4938 75.6567 54.5805 75.5424 54.638C75.428 54.6955 75.2962 54.7242 75.147 54.724C74.9977 54.7239 74.8409 54.6935 74.6766 54.6328L74.7275 54.5536C75.0174 54.6607 75.2206 54.7959 75.337 54.9593C75.4566 55.1239 75.4781 55.2952 75.4016 55.4732C75.3416 55.6127 75.2387 55.7174 75.0929 55.7874C74.9483 55.8544 74.7779 55.886 74.5817 55.8823C74.3886 55.8798 74.1874 55.8398 73.978 55.7625ZM75.8411 56.4197L76.8462 54.0826L77.1893 54.2094L76.391 56.0657L78.8854 54.8359L79.1898 54.9483L78.1848 57.2854L77.8417 57.1587L78.6419 55.2979L76.1504 56.5339L75.8411 56.4197ZM80.1733 58.0456C79.922 57.9528 79.7182 57.8191 79.5618 57.6444C79.41 57.468 79.316 57.2699 79.2798 57.0502C79.2449 56.8275 79.2772 56.6004 79.3768 56.3689C79.4776 56.1345 79.6227 55.949 79.812 55.8126C80.0013 55.6762 80.2159 55.5938 80.4559 55.5655C80.699 55.5384 80.9462 55.5713 81.1975 55.6641C81.4133 55.7438 81.5916 55.8544 81.7324 55.9958C81.8732 56.1372 81.9603 56.3035 81.9938 56.4947L81.6688 56.5604C81.6329 56.4095 81.5626 56.2821 81.458 56.1781C81.3534 56.0742 81.2254 55.9942 81.0739 55.9383C80.8935 55.8716 80.7143 55.8501 80.5361 55.8737C80.3592 55.8944 80.1996 55.9575 80.0571 56.0631C79.9146 56.1687 79.8038 56.3134 79.7247 56.4974C79.6456 56.6814 79.6185 56.8572 79.6436 57.0246C79.6686 57.1921 79.737 57.3411 79.8488 57.4719C79.9619 57.5996 80.1086 57.6968 80.289 57.7634C80.4405 57.8193 80.5927 57.8429 80.7458 57.8341C80.8989 57.8253 81.0439 57.7791 81.1806 57.6955L81.3678 57.9504C81.2029 58.0648 81.0162 58.13 80.8077 58.1459C80.6006 58.1588 80.3891 58.1254 80.1733 58.0456ZM84.2684 59.5325L85.2735 57.1954L85.6166 57.3221L84.6115 59.6592L84.2684 59.5325ZM83.5131 57.4995C83.8308 57.6203 84.0459 57.7754 84.1586 57.9649C84.2712 58.1544 84.2759 58.3693 84.1725 58.6097C84.0653 58.859 83.8927 59.0171 83.6549 59.084C83.4171 59.1509 83.1313 59.121 82.7975 58.9943L81.7943 58.6186L82.7994 56.2815L83.1425 56.4083L82.7921 57.2229L83.5131 57.4995ZM82.8767 58.745C83.1138 58.836 83.3111 58.859 83.4686 58.814C83.6306 58.7673 83.7493 58.6563 83.8246 58.4812C83.8999 58.3061 83.8951 58.1565 83.8104 58.0323C83.7269 57.9052 83.565 57.7956 83.3247 57.7033L82.6907 57.4588L82.2427 58.5005L82.8767 58.745Z" fill="black"/>
<rect width="36.052" height="10.3484" rx="5.1742" transform="matrix(0.9967 -0.108495 0.135668 0.98777 24.4424 85.6033)" fill="#FDF9D3"/>
<path d="M31.374 91.7755C31.1116 91.804 30.8632 91.7876 30.6288 91.7263C30.394 91.6616 30.1843 91.5591 29.9998 91.4188C29.8153 91.2784 29.6619 91.1063 29.5395 90.9024C29.4204 90.6982 29.3434 90.4693 29.3086 90.2158C29.2738 89.9622 29.2865 89.7236 29.3468 89.4998C29.4104 89.2757 29.5128 89.0757 29.6539 88.9C29.7983 88.7238 29.9759 88.5808 30.1868 88.471C30.3971 88.3579 30.6336 88.287 30.896 88.2585C31.1485 88.231 31.392 88.2479 31.6263 88.3093C31.8602 88.3674 32.0651 88.4721 32.241 88.6233L32.0387 88.881C31.8759 88.7516 31.7038 88.6651 31.5225 88.6214C31.3407 88.5743 31.1501 88.5616 30.9508 88.5833C30.7415 88.6061 30.5521 88.6635 30.3826 88.7555C30.2127 88.8441 30.0704 88.9616 29.9556 89.1077C29.8403 89.2506 29.7564 89.4135 29.704 89.5963C29.6544 89.7754 29.6439 89.9687 29.6724 90.1762C29.7009 90.3836 29.7636 90.5706 29.8607 90.7371C29.9606 90.9 30.0861 91.0401 30.2371 91.1573C30.3876 91.2713 30.5575 91.3547 30.7469 91.4076C30.9358 91.4572 31.1349 91.4707 31.3442 91.4479C31.5435 91.4262 31.7251 91.373 31.8888 91.2883C32.0525 91.2037 32.1959 91.0811 32.3188 90.9207L32.5849 91.1273C32.4552 91.3119 32.2849 91.4591 32.074 91.5689C31.8632 91.6788 31.6298 91.7476 31.374 91.7755ZM33.7031 91.4919L33.3761 89.1113L33.4787 89.1954L32.3973 89.3131L32.3552 89.0069L34.6925 88.7525L34.7346 89.0587L33.6531 89.1764L33.73 89.0728L34.0569 91.4533L33.7031 91.4919ZM36.8643 91.1728C36.6384 91.1974 36.4271 91.1686 36.2303 91.0864C36.0331 91.001 35.8664 90.8671 35.73 90.6847C35.5966 90.4987 35.5104 90.2642 35.4715 89.981C35.4326 89.6979 35.453 89.4534 35.5326 89.2475C35.6118 89.0384 35.7358 88.8729 35.9045 88.7509C36.0732 88.6289 36.2722 88.5555 36.5014 88.5305C36.7506 88.5034 36.9809 88.5351 37.1923 88.6258C37.4065 88.7127 37.5839 88.8505 37.7245 89.039C37.8646 89.2243 37.9525 89.447 37.9882 89.7071C38.0244 89.9705 37.9995 90.2071 37.9137 90.417C37.8279 90.6268 37.693 90.7985 37.509 90.9322C37.3284 91.0655 37.1135 91.1457 36.8643 91.1728ZM35.642 92.2533L35.1543 88.7022L35.4931 88.6653L35.6003 89.4457L35.6367 89.9681L35.7584 90.4861L35.9958 92.2147L35.642 92.2533ZM36.7967 90.8644C36.9827 90.8441 37.1432 90.7849 37.2781 90.6867C37.4125 90.5851 37.5125 90.4539 37.5781 90.2931C37.6432 90.1289 37.662 89.9464 37.6344 89.7456C37.6068 89.5447 37.5394 89.3733 37.4322 89.2312C37.325 89.0892 37.1925 88.9833 37.0345 88.9136C36.8766 88.8439 36.7046 88.8192 36.5185 88.8394C36.3325 88.8597 36.1706 88.9208 36.0328 89.0226C35.8984 89.1242 35.7984 89.2554 35.7328 89.4162C35.6706 89.5767 35.6532 89.7574 35.6808 89.9582C35.7084 90.1591 35.7744 90.3324 35.8787 90.4781C35.9859 90.6201 36.1184 90.726 36.2764 90.7957C36.4372 90.8617 36.6106 90.8846 36.7967 90.8644ZM40.487 90.7534L40.4083 90.1805L40.3805 90.0883L40.2489 89.1301C40.2186 88.9095 40.1322 88.7468 39.9896 88.6421C39.8504 88.5369 39.6579 88.4977 39.412 88.5245C39.2426 88.5429 39.0853 88.5884 38.9402 88.6611C38.795 88.7337 38.6756 88.8218 38.582 88.9256L38.3866 88.6812C38.5041 88.5548 38.6518 88.4518 38.8297 88.3723C39.0072 88.2895 39.1989 88.2369 39.4049 88.2145C39.7438 88.1776 40.0161 88.2331 40.2219 88.3812C40.4305 88.5256 40.5582 88.7673 40.6047 89.1064L40.8259 90.7165L40.487 90.7534ZM39.5884 90.8763C39.3924 90.8976 39.217 90.885 39.0622 90.8383C38.9103 90.788 38.7884 90.7111 38.6967 90.6074C38.6044 90.5005 38.5481 90.373 38.5278 90.2248C38.5092 90.0898 38.5241 89.9645 38.5723 89.849C38.6233 89.7298 38.7174 89.6294 38.8546 89.5476C38.9946 89.4622 39.1892 89.4059 39.4383 89.3788L40.3404 89.2806L40.3763 89.5424L39.4843 89.6395C39.2318 89.6669 39.0618 89.7306 38.9743 89.8303C38.8902 89.9297 38.8572 90.0452 38.8753 90.1769C38.8956 90.3251 38.97 90.4373 39.0985 90.5136C39.227 90.5898 39.3959 90.6165 39.6052 90.5937C39.8046 90.572 39.9695 90.509 40.1002 90.4045C40.2337 90.2964 40.3219 90.1531 40.3649 89.9747L40.4778 90.208C40.4349 90.3865 40.3374 90.5358 40.1853 90.6559C40.0365 90.7757 39.8376 90.8492 39.5884 90.8763ZM42.2163 90.5652L41.8894 88.1846L41.9919 88.2687L40.9105 88.3864L40.8685 88.0802L43.2057 87.8258L43.2478 88.132L42.1664 88.2497L42.2432 88.1461L42.5701 90.5266L42.2163 90.5652ZM45.0266 90.2843C44.7542 90.314 44.5073 90.284 44.2859 90.1945C44.0641 90.1017 43.8815 89.9628 43.7381 89.7779C43.5942 89.5897 43.5047 89.3672 43.4694 89.1104C43.4341 88.8536 43.4577 88.6204 43.5402 88.411C43.6261 88.2011 43.7576 88.0297 43.9349 87.8968C44.1151 87.7602 44.3265 87.6787 44.569 87.6523C44.8149 87.6256 45.0402 87.6578 45.2449 87.7492C45.4525 87.8369 45.625 87.9752 45.7622 88.1641C45.899 88.3497 45.9852 88.5726 46.0209 88.8327C46.0232 88.8491 46.024 88.8674 46.0234 88.8875C46.0257 88.904 46.0282 88.9221 46.0309 88.9419L43.7534 89.1898L43.7175 88.928L45.8056 88.7007L45.6803 88.8196C45.6545 88.6319 45.5901 88.4702 45.4872 88.3344C45.3871 88.1949 45.2616 88.0916 45.1108 88.0244C44.9599 87.9573 44.7931 87.9337 44.6104 87.9536C44.431 87.9731 44.2755 88.0318 44.144 88.1297C44.0124 88.2276 43.9169 88.3549 43.8576 88.5118C43.7982 88.6686 43.7816 88.8425 43.8078 89.0335L43.8153 89.0878C43.8424 89.2854 43.9096 89.4552 44.0168 89.5972C44.1268 89.7356 44.2658 89.8391 44.4337 89.9077C44.6045 89.9727 44.7912 89.9941 44.9939 89.9721C45.1533 89.9547 45.2973 89.9106 45.4259 89.8398C45.5577 89.7687 45.6656 89.67 45.7494 89.544L45.9799 89.7494C45.8827 89.9004 45.7509 90.0217 45.5848 90.1133C45.422 90.2045 45.2359 90.2615 45.0266 90.2843ZM46.9327 90.0518L46.5766 87.4589L48.4305 87.2571L48.4725 87.5633L46.8828 87.7363L46.9603 87.6376L47.2866 90.0132L46.9327 90.0518ZM49.2481 89.7997L48.892 87.2068L49.2458 87.1683L49.5287 89.2278L50.995 86.9779L51.309 86.9437L51.6651 89.5366L51.3113 89.5751L51.0277 87.5107L49.5671 89.765L49.2481 89.7997ZM52.6293 89.4317L52.2732 86.8388L52.627 86.8002L52.9099 88.8597L54.3762 86.6098L54.6902 86.5757L55.0463 89.1686L54.6925 89.2071L54.4089 87.1426L52.9482 89.3969L52.6293 89.4317Z" fill="black"/>
<rect width="35.3172" height="9.86079" rx="4.9304" transform="matrix(0.868405 0.532777 -0.570288 0.798373 22.3701 57.8454)" fill="#FF8BA4"/>
<path d="M21.1269 64.524L23.0768 61.7016L25.6596 63.2341L23.7097 66.0565L23.3896 65.8666L25.2169 63.2216L25.2445 63.3517L23.1353 62.1001L23.2743 62.0689L21.447 64.7139L21.1269 64.524ZM25.5603 67.1831C25.3381 67.0512 25.1694 66.8867 25.0542 66.6895C24.9438 66.4913 24.8932 66.2813 24.9023 66.0593C24.9132 65.8346 24.9911 65.6174 25.136 65.4077C25.2827 65.1954 25.4629 65.0389 25.6767 64.9384C25.8904 64.8378 26.1165 64.7939 26.3551 64.8065C26.5936 64.8192 26.8254 64.8924 27.0505 65.0259C27.2786 65.1612 27.4487 65.3266 27.561 65.5221C27.6762 65.7193 27.7277 65.928 27.7157 66.1483C27.7066 66.3703 27.6287 66.5875 27.482 66.7998C27.3371 67.0095 27.1569 67.1659 26.9413 67.2692C26.7305 67.3715 26.5034 67.4168 26.2601 67.405C26.0187 67.3906 25.7854 67.3166 25.5603 67.1831ZM25.7358 66.929C25.9024 67.0279 26.0732 67.0819 26.2483 67.091C26.4252 67.0975 26.5929 67.0606 26.7514 66.9803C26.9147 66.899 27.053 66.7764 27.1663 66.6125C27.2814 66.4458 27.3437 66.2781 27.3531 66.1094C27.3654 65.9423 27.3305 65.7871 27.2483 65.6435C27.168 65.4973 27.0459 65.3757 26.8822 65.2785C26.7185 65.1814 26.5482 65.1296 26.3713 65.1231C26.1962 65.114 26.028 65.1487 25.8666 65.2273C25.7051 65.3058 25.5669 65.4284 25.4517 65.5951C25.3384 65.7591 25.2762 65.9268 25.2649 66.0982C25.2555 66.2669 25.2909 66.4244 25.3713 66.5706C25.4535 66.7142 25.575 66.8336 25.7358 66.929ZM27.7238 68.4384L29.0664 66.495L29.0925 66.6184L28.1409 66.0538L28.3136 65.8038L30.3702 67.0241L30.1975 67.2741L29.2459 66.7095L29.3778 66.6797L28.0351 68.6232L27.7238 68.4384ZM30.1797 69.9241C29.94 69.7819 29.7611 69.6113 29.643 69.4123C29.5267 69.2107 29.4732 68.9989 29.4823 68.7769C29.4932 68.5522 29.5711 68.3351 29.716 68.1254C29.8608 67.9157 30.0372 67.7589 30.2451 67.6548C30.4559 67.5525 30.6777 67.506 30.9104 67.5152C31.1478 67.5235 31.3733 67.5909 31.5867 67.7175C31.803 67.8459 31.9629 68.0052 32.0664 68.1955C32.1747 68.3848 32.2204 68.5901 32.2036 68.8113C32.1887 69.0298 32.1078 69.2452 31.9611 69.4576C31.9518 69.471 31.9402 69.485 31.9261 69.4993C31.9168 69.5128 31.9066 69.5276 31.8955 69.5437L29.8915 68.3546L30.0391 68.1409L31.8765 69.2311L31.6952 69.2429C31.801 69.0897 31.8583 68.9323 31.8669 68.7707C31.8803 68.6081 31.8488 68.4567 31.7725 68.3167C31.6961 68.1766 31.5776 68.0589 31.4168 67.9635C31.2589 67.8698 31.0939 67.8193 30.9218 67.8119C30.7496 67.8045 30.5867 67.8405 30.433 67.9198C30.2793 67.9991 30.1485 68.1168 30.0408 68.2727L30.0102 68.317C29.8988 68.4783 29.8384 68.6433 29.8289 68.8121C29.8243 68.9799 29.8665 69.1395 29.9557 69.2909C30.0496 69.4413 30.1857 69.5695 30.364 69.6753C30.5043 69.7586 30.6502 69.8129 30.8016 69.8383C30.956 69.8655 31.1095 69.8581 31.2622 69.816L31.3095 70.1056C31.1291 70.1577 30.9411 70.1674 30.7453 70.1346C30.5524 70.1036 30.3639 70.0334 30.1797 69.9241ZM31.8739 70.9009L33.3363 68.7841L33.6476 68.9689L33.0014 69.9043L34.4528 70.7655L35.0991 69.8301L35.4104 70.0149L33.948 72.1317L33.6366 71.9469L34.2829 71.0115L32.8314 70.1502L32.1852 71.0857L31.8739 70.9009ZM34.7891 72.6307L36.2515 70.5139L36.5628 70.6987L35.2731 72.5655L36.6807 73.4007L37.9704 71.5339L38.2818 71.7186L36.8193 73.8355L34.7891 72.6307ZM36.5445 74.3944L36.915 73.8581L36.9772 73.9291L36.508 73.6507L36.6807 73.4007L37.3648 73.8066L36.8383 74.5687L36.5445 74.3944ZM37.7428 74.3834L39.2052 72.2666L39.5166 72.4513L38.355 74.1327L41.0557 73.3646L41.332 73.5286L39.8696 75.6454L39.5582 75.4606L40.7226 73.7752L38.0235 74.5499L37.7428 74.3834ZM42.1475 76.997L42.4706 76.5293L42.5104 76.4449L43.0508 75.6627C43.1752 75.4826 43.2153 75.3112 43.1711 75.1485C43.1298 74.9876 43.001 74.8429 42.7846 74.7146C42.6355 74.6261 42.478 74.5648 42.3119 74.5307C42.1459 74.4966 41.9901 74.4894 41.8445 74.5092L41.8518 74.2122C42.0319 74.1902 42.2205 74.2036 42.4177 74.2524C42.6167 74.2984 42.8068 74.3752 42.988 74.4828C43.2862 74.6597 43.4683 74.8644 43.5344 75.0969C43.6053 75.3285 43.5451 75.5827 43.3538 75.8595L42.4457 77.174L42.1475 76.997ZM41.3399 76.5462C41.1674 76.4439 41.0345 76.329 40.9411 76.2016C40.8526 76.0733 40.8063 75.9435 40.8022 75.8122C40.7999 75.6782 40.8406 75.5507 40.9241 75.4298C41.0003 75.3196 41.0968 75.2366 41.2136 75.1808C41.3352 75.1241 41.4789 75.1071 41.6447 75.1296C41.8152 75.1512 42.0101 75.2271 42.2294 75.3572L43.0231 75.8281L42.8754 76.0418L42.0905 75.5761C41.8683 75.4443 41.6883 75.3886 41.5505 75.4091C41.4156 75.4314 41.311 75.4963 41.2367 75.6038C41.1531 75.7248 41.1374 75.8519 41.1896 75.9852C41.2418 76.1185 41.3599 76.2398 41.5441 76.3491C41.7195 76.4531 41.8951 76.5062 42.071 76.5082C42.2516 76.5093 42.4194 76.4573 42.5745 76.3522L42.5081 76.5914C42.3531 76.6965 42.1737 76.7473 41.97 76.7439C41.7692 76.7422 41.5591 76.6763 41.3399 76.5462ZM42.8125 77.3859L43.0043 77.153C43.0229 77.1678 43.0391 77.1831 43.053 77.1989C43.0716 77.2137 43.0882 77.2255 43.1028 77.2342C43.1963 77.2897 43.2932 77.3016 43.3933 77.2701C43.4963 77.2403 43.5996 77.1803 43.7031 77.0901C43.8066 76.9999 43.9107 76.8911 44.0152 76.7636C44.1216 76.6335 44.2266 76.5025 44.33 76.3706L44.8904 75.64L46.5787 76.6418L45.1162 78.7586L44.8049 78.5739L46.1531 76.6224L46.1735 76.7539L44.9194 76.0097L45.0552 75.9652L44.5968 76.5573C44.4617 76.7349 44.3249 76.9 44.1864 77.0528C44.0508 77.2073 43.916 77.3339 43.7819 77.4325C43.6508 77.5328 43.5207 77.5958 43.3916 77.6216C43.2644 77.6446 43.1394 77.6197 43.0166 77.5468C42.9815 77.526 42.9468 77.5017 42.9126 77.4737C42.8812 77.4475 42.8478 77.4183 42.8125 77.3859Z" fill="black"/>
</svg>
